<svg class="main-svg" xmlns="http://www.w3.org/2000/svg" xmlns:xlink="http://www.w3.org/1999/xlink" width="900" height="600" style="" viewBox="0 0 900 600"><rect x="0" y="0" width="900" height="600" style="fill: rgb(255, 255, 255); fill-opacity: 1;"/><defs id="defs-d41551"><g class="clips"><clipPath id="clipd41551xyplot" class="plotclip"><rect width="767" height="423"/></clipPath><clipPath class="axesclip" id="clipd41551x"><rect x="83" y="0" width="767" height="600"/></clipPath><clipPath class="axesclip" id="clipd41551y"><rect x="0" y="50" width="900" height="423"/></clipPath><clipPath class="axesclip" id="clipd41551xy"><rect x="83" y="50" width="767" height="423"/></clipPath></g><g class="gradients"/><g class="patterns"/></defs><g class="bglayer"/><g class="layer-below"><g class="imagelayer"/><g class="shapelayer"/></g><g class="cartesianlayer"><g class="subplot xy"><g class="layer-subplot"><g class="shapelayer"/><g class="imagelayer"/></g><g class="minor-gridlayer"><g class="x"/><g class="y"/></g><g class="gridlayer"><g class="x"><path class="xgrid crisp" transform="translate(125.72999999999999,0)" d="M0,50v423" style="stroke: rgb(127, 127, 127); stroke-opacity: 0.2; stroke-width: 1px;"/><path class="xgrid crisp" transform="translate(152.99,0)" d="M0,50v423" style="stroke: rgb(127, 127, 127); stroke-opacity: 0.2; stroke-width: 1px;"/><path class="xgrid crisp" transform="translate(180.25,0)" d="M0,50v423" style="stroke: rgb(127, 127, 127); stroke-opacity: 0.2; stroke-width: 1px;"/><path class="xgrid crisp" transform="translate(207.51,0)" d="M0,50v423" style="stroke: rgb(127, 127, 127); stroke-opacity: 0.2; stroke-width: 1px;"/><path class="xgrid crisp" transform="translate(234.77,0)" d="M0,50v423" style="stroke: rgb(127, 127, 127); stroke-opacity: 0.2; stroke-width: 1px;"/><path class="xgrid crisp" transform="translate(262.03,0)" d="M0,50v423" style="stroke: rgb(127, 127, 127); stroke-opacity: 0.2; stroke-width: 1px;"/><path class="xgrid crisp" transform="translate(289.3,0)" d="M0,50v423" style="stroke: rgb(127, 127, 127); stroke-opacity: 0.2; stroke-width: 1px;"/><path class="xgrid crisp" transform="translate(316.56,0)" d="M0,50v423" style="stroke: rgb(127, 127, 127); stroke-opacity: 0.2; stroke-width: 1px;"/><path class="xgrid crisp" transform="translate(343.82,0)" d="M0,50v423" style="stroke: rgb(127, 127, 127); stroke-opacity: 0.2; stroke-width: 1px;"/><path class="xgrid crisp" transform="translate(371.08,0)" d="M0,50v423" style="stroke: rgb(127, 127, 127); stroke-opacity: 0.2; stroke-width: 1px;"/><path class="xgrid crisp" transform="translate(398.34,0)" d="M0,50v423" style="stroke: rgb(127, 127, 127); stroke-opacity: 0.2; stroke-width: 1px;"/><path class="xgrid crisp" transform="translate(425.61,0)" d="M0,50v423" style="stroke: rgb(127, 127, 127); stroke-opacity: 0.2; stroke-width: 1px;"/><path class="xgrid crisp" transform="translate(452.87,0)" d="M0,50v423" style="stroke: rgb(127, 127, 127); stroke-opacity: 0.2; stroke-width: 1px;"/><path class="xgrid crisp" transform="translate(480.13,0)" d="M0,50v423" style="stroke: rgb(127, 127, 127); stroke-opacity: 0.2; stroke-width: 1px;"/><path class="xgrid crisp" transform="translate(507.39,0)" d="M0,50v423" style="stroke: rgb(127, 127, 127); stroke-opacity: 0.2; stroke-width: 1px;"/><path class="xgrid crisp" transform="translate(534.6600000000001,0)" d="M0,50v423" style="stroke: rgb(127, 127, 127); stroke-opacity: 0.2; stroke-width: 1px;"/><path class="xgrid crisp" transform="translate(561.9200000000001,0)" d="M0,50v423" style="stroke: rgb(127, 127, 127); stroke-opacity: 0.2; stroke-width: 1px;"/><path class="xgrid crisp" transform="translate(589.1800000000001,0)" d="M0,50v423" style="stroke: rgb(127, 127, 127); stroke-opacity: 0.2; stroke-width: 1px;"/><path class="xgrid crisp" transform="translate(616.44,0)" d="M0,50v423" style="stroke: rgb(127, 127, 127); stroke-opacity: 0.2; stroke-width: 1px;"/><path class="xgrid crisp" transform="translate(643.7,0)" d="M0,50v423" style="stroke: rgb(127, 127, 127); stroke-opacity: 0.2; stroke-width: 1px;"/><path class="xgrid crisp" transform="translate(670.96,0)" d="M0,50v423" style="stroke: rgb(127, 127, 127); stroke-opacity: 0.2; stroke-width: 1px;"/><path class="xgrid crisp" transform="translate(698.23,0)" d="M0,50v423" style="stroke: rgb(127, 127, 127); stroke-opacity: 0.2; stroke-width: 1px;"/><path class="xgrid crisp" transform="translate(725.49,0)" d="M0,50v423" style="stroke: rgb(127, 127, 127); stroke-opacity: 0.2; stroke-width: 1px;"/><path class="xgrid crisp" transform="translate(752.75,0)" d="M0,50v423" style="stroke: rgb(127, 127, 127); stroke-opacity: 0.2; stroke-width: 1px;"/><path class="xgrid crisp" transform="translate(780.01,0)" d="M0,50v423" style="stroke: rgb(127, 127, 127); stroke-opacity: 0.2; stroke-width: 1px;"/><path class="xgrid crisp" transform="translate(807.28,0)" d="M0,50v423" style="stroke: rgb(127, 127, 127); stroke-opacity: 0.2; stroke-width: 1px;"/></g><g class="y"><path class="ygrid crisp" transform="translate(0,382.36)" d="M83,0h767" style="stroke: rgb(127, 127, 127); stroke-opacity: 0.2; stroke-width: 1px;"/><path class="ygrid crisp" transform="translate(0,321.93)" d="M83,0h767" style="stroke: rgb(127, 127, 127); stroke-opacity: 0.2; stroke-width: 1px;"/><path class="ygrid crisp" transform="translate(0,261.5)" d="M83,0h767" style="stroke: rgb(127, 127, 127); stroke-opacity: 0.2; stroke-width: 1px;"/><path class="ygrid crisp" transform="translate(0,201.07)" d="M83,0h767" style="stroke: rgb(127, 127, 127); stroke-opacity: 0.2; stroke-width: 1px;"/><path class="ygrid crisp" transform="translate(0,140.64)" d="M83,0h767" style="stroke: rgb(127, 127, 127); stroke-opacity: 0.2; stroke-width: 1px;"/><path class="ygrid crisp" transform="translate(0,80.21000000000001)" d="M83,0h767" style="stroke: rgb(127, 127, 127); stroke-opacity: 0.2; stroke-width: 1px;"/></g></g><g class="zerolinelayer"><path class="yzl zl crisp" transform="translate(0,442.79)" d="M83,0h767" style="stroke: rgb(0, 0, 0); stroke-opacity: 1; stroke-width: 2px;"/></g><path class="xlines-below"/><path class="ylines-below"/><g class="overlines-below"/><g class="xaxislayer-below"/><g class="yaxislayer-below"/><g class="overaxes-below"/><g class="plot" transform="translate(83,50)" clip-path="url(#clipd41551xyplot)"><g class="scatterlayer mlayer"><g class="trace scatter trace84e9bb" style="stroke-miterlimit: 2;"><g class="fills"><g><path class="js-fill" d="M42.73,407.58L69.99,367.85L97.25,367.53L124.51,341.32L151.77,335.91L179.03,319.72L206.3,311.04L233.56,310.98L260.82,303.6L288.08,300.73L315.34,283.62L342.61,272.08L369.87,265.21L397.13,262.87L424.39,262.17L451.66,261.27L478.92,238.6L506.18,235.46L533.44,231.2L560.7,221.23L587.96,207.43L615.23,192.12L642.49,179.92L669.75,176.66L697.01,151.25L724.28,145.92L724.28,32.11L697.01,68.8L669.75,102.35L642.49,69.29L615.23,66.92L587.96,107.66L560.7,116.36L533.44,94.89L506.18,124.83L478.92,103.09L451.66,132.4L424.39,145.37L397.13,106.42L369.87,128.04L342.61,125.08L315.34,70.12L288.08,146.47L260.82,126.86L233.56,123.23L206.3,104.42L179.03,139.2L151.77,125.78L124.51,125.92L97.25,129.81L69.99,118.14L42.73,174.16Z" style="fill: rgb(255, 127, 14); fill-opacity: 0.2; stroke-width: 0;"/></g></g><g class="errorbars"/><g class="lines"><path class="js-line" d="M42.73,174.16L69.99,118.14L97.25,129.81L124.51,125.92L151.77,125.78L179.03,139.2L206.3,104.42L233.56,123.23L260.82,126.86L288.08,146.47L315.34,70.12L342.61,125.08L369.87,128.04L397.13,106.42L424.39,145.37L451.66,132.4L478.92,103.09L506.18,124.83L533.44,94.89L560.7,116.36L587.96,107.66L615.23,66.92L642.49,69.29L669.75,102.35L697.01,68.8L724.28,32.11" style="vector-effect: non-scaling-stroke; fill: none; stroke: rgb(31, 119, 180); stroke-opacity: 1; stroke-width: 0px; opacity: 1;"/></g><g class="points"><path class="point" transform="translate(42.73,174.16)" d="M3.5,0A3.5,3.5 0 1,1 0,-3.5A3.5,3.5 0 0,1 3.5,0Z" style="opacity: 1; stroke-width: 0px; fill: rgb(55, 128, 191); fill-opacity: 1;"/><path class="point" transform="translate(69.99,118.14)" d="M3.5,0A3.5,3.5 0 1,1 0,-3.5A3.5,3.5 0 0,1 3.5,0Z" style="opacity: 1; stroke-width: 0px; fill: rgb(55, 128, 191); fill-opacity: 1;"/><path class="point" transform="translate(97.25,129.81)" d="M3.5,0A3.5,3.5 0 1,1 0,-3.5A3.5,3.5 0 0,1 3.5,0Z" style="opacity: 1; stroke-width: 0px; fill: rgb(55, 128, 191); fill-opacity: 1;"/><path class="point" transform="translate(124.51,125.92)" d="M3.5,0A3.5,3.5 0 1,1 0,-3.5A3.5,3.5 0 0,1 3.5,0Z" style="opacity: 1; stroke-width: 0px; fill: rgb(55, 128, 191); fill-opacity: 1;"/><path class="point" transform="translate(151.77,125.78)" d="M3.5,0A3.5,3.5 0 1,1 0,-3.5A3.5,3.5 0 0,1 3.5,0Z" style="opacity: 1; stroke-width: 0px; fill: rgb(55, 128, 191); fill-opacity: 1;"/><path class="point" transform="translate(179.03,139.2)" d="M3.5,0A3.5,3.5 0 1,1 0,-3.5A3.5,3.5 0 0,1 3.5,0Z" style="opacity: 1; stroke-width: 0px; fill: rgb(55, 128, 191); fill-opacity: 1;"/><path class="point" transform="translate(206.3,104.42)" d="M3.5,0A3.5,3.5 0 1,1 0,-3.5A3.5,3.5 0 0,1 3.5,0Z" style="opacity: 1; stroke-width: 0px; fill: rgb(55, 128, 191); fill-opacity: 1;"/><path class="point" transform="translate(233.56,123.23)" d="M3.5,0A3.5,3.5 0 1,1 0,-3.5A3.5,3.5 0 0,1 3.5,0Z" style="opacity: 1; stroke-width: 0px; fill: rgb(55, 128, 191); fill-opacity: 1;"/><path class="point" transform="translate(260.82,126.86)" d="M3.5,0A3.5,3.5 0 1,1 0,-3.5A3.5,3.5 0 0,1 3.5,0Z" style="opacity: 1; stroke-width: 0px; fill: rgb(55, 128, 191); fill-opacity: 1;"/><path class="point" transform="translate(288.08,146.47)" d="M3.5,0A3.5,3.5 0 1,1 0,-3.5A3.5,3.5 0 0,1 3.5,0Z" style="opacity: 1; stroke-width: 0px; fill: rgb(55, 128, 191); fill-opacity: 1;"/><path class="point" transform="translate(315.34,70.12)" d="M3.5,0A3.5,3.5 0 1,1 0,-3.5A3.5,3.5 0 0,1 3.5,0Z" style="opacity: 1; stroke-width: 0px; fill: rgb(55, 128, 191); fill-opacity: 1;"/><path class="point" transform="translate(342.61,125.08)" d="M3.5,0A3.5,3.5 0 1,1 0,-3.5A3.5,3.5 0 0,1 3.5,0Z" style="opacity: 1; stroke-width: 0px; fill: rgb(55, 128, 191); fill-opacity: 1;"/><path class="point" transform="translate(369.87,128.04)" d="M3.5,0A3.5,3.5 0 1,1 0,-3.5A3.5,3.5 0 0,1 3.5,0Z" style="opacity: 1; stroke-width: 0px; fill: rgb(55, 128, 191); fill-opacity: 1;"/><path class="point" transform="translate(397.13,106.42)" d="M3.5,0A3.5,3.5 0 1,1 0,-3.5A3.5,3.5 0 0,1 3.5,0Z" style="opacity: 1; stroke-width: 0px; fill: rgb(55, 128, 191); fill-opacity: 1;"/><path class="point" transform="translate(424.39,145.37)" d="M3.5,0A3.5,3.5 0 1,1 0,-3.5A3.5,3.5 0 0,1 3.5,0Z" style="opacity: 1; stroke-width: 0px; fill: rgb(55, 128, 191); fill-opacity: 1;"/><path class="point" transform="translate(451.66,132.4)" d="M3.5,0A3.5,3.5 0 1,1 0,-3.5A3.5,3.5 0 0,1 3.5,0Z" style="opacity: 1; stroke-width: 0px; fill: rgb(55, 128, 191); fill-opacity: 1;"/><path class="point" transform="translate(478.92,103.09)" d="M3.5,0A3.5,3.5 0 1,1 0,-3.5A3.5,3.5 0 0,1 3.5,0Z" style="opacity: 1; stroke-width: 0px; fill: rgb(55, 128, 191); fill-opacity: 1;"/><path class="point" transform="translate(506.18,124.83)" d="M3.5,0A3.5,3.5 0 1,1 0,-3.5A3.5,3.5 0 0,1 3.5,0Z" style="opacity: 1; stroke-width: 0px; fill: rgb(55, 128, 191); fill-opacity: 1;"/><path class="point" transform="translate(533.44,94.89)" d="M3.5,0A3.5,3.5 0 1,1 0,-3.5A3.5,3.5 0 0,1 3.5,0Z" style="opacity: 1; stroke-width: 0px; fill: rgb(55, 128, 191); fill-opacity: 1;"/><path class="point" transform="translate(560.7,116.36)" d="M3.5,0A3.5,3.5 0 1,1 0,-3.5A3.5,3.5 0 0,1 3.5,0Z" style="opacity: 1; stroke-width: 0px; fill: rgb(55, 128, 191); fill-opacity: 1;"/><path class="point" transform="translate(587.96,107.66)" d="M3.5,0A3.5,3.5 0 1,1 0,-3.5A3.5,3.5 0 0,1 3.5,0Z" style="opacity: 1; stroke-width: 0px; fill: rgb(55, 128, 191); fill-opacity: 1;"/><path class="point" transform="translate(615.23,66.92)" d="M3.5,0A3.5,3.5 0 1,1 0,-3.5A3.5,3.5 0 0,1 3.5,0Z" style="opacity: 1; stroke-width: 0px; fill: rgb(55, 128, 191); fill-opacity: 1;"/><path class="point" transform="translate(642.49,69.29)" d="M3.5,0A3.5,3.5 0 1,1 0,-3.5A3.5,3.5 0 0,1 3.5,0Z" style="opacity: 1; stroke-width: 0px; fill: rgb(55, 128, 191); fill-opacity: 1;"/><path class="point" transform="translate(669.75,102.35)" d="M3.5,0A3.5,3.5 0 1,1 0,-3.5A3.5,3.5 0 0,1 3.5,0Z" style="opacity: 1; stroke-width: 0px; fill: rgb(55, 128, 191); fill-opacity: 1;"/><path class="point" transform="translate(697.01,68.8)" d="M3.5,0A3.5,3.5 0 1,1 0,-3.5A3.5,3.5 0 0,1 3.5,0Z" style="opacity: 1; stroke-width: 0px; fill: rgb(55, 128, 191); fill-opacity: 1;"/><path class="point" transform="translate(724.28,32.11)" d="M3.5,0A3.5,3.5 0 1,1 0,-3.5A3.5,3.5 0 0,1 3.5,0Z" style="opacity: 1; stroke-width: 0px; fill: rgb(55, 128, 191); fill-opacity: 1;"/></g><g class="text"/></g><g class="trace scatter trace647136" style="stroke-miterlimit: 2;"><g class="fills"/><g class="errorbars"/><g class="lines"><path class="js-line" d="M42.73,407.58L69.99,367.85L97.25,367.53L124.51,341.32L151.77,335.91L179.03,319.72L206.3,311.04L233.56,310.98L260.82,303.6L288.08,300.73L315.34,283.62L342.61,272.08L369.87,265.21L397.13,262.87L424.39,262.17L451.66,261.27L478.92,238.6L506.18,235.46L533.44,231.2L560.7,221.23L587.96,207.43L615.23,192.12L642.49,179.92L669.75,176.66L697.01,151.25L724.28,145.92" style="vector-effect: non-scaling-stroke; fill: none; stroke: rgb(255, 127, 14); stroke-opacity: 1; stroke-width: 0px; opacity: 1;"/></g><g class="points"><path class="point" transform="translate(42.73,407.58)" d="M3.5,0A3.5,3.5 0 1,1 0,-3.5A3.5,3.5 0 0,1 3.5,0Z" style="opacity: 1; stroke-width: 0px; fill: rgb(255, 127, 14); fill-opacity: 1;"/><path class="point" transform="translate(69.99,367.85)" d="M3.5,0A3.5,3.5 0 1,1 0,-3.5A3.5,3.5 0 0,1 3.5,0Z" style="opacity: 1; stroke-width: 0px; fill: rgb(255, 127, 14); fill-opacity: 1;"/><path class="point" transform="translate(97.25,367.53)" d="M3.5,0A3.5,3.5 0 1,1 0,-3.5A3.5,3.5 0 0,1 3.5,0Z" style="opacity: 1; stroke-width: 0px; fill: rgb(255, 127, 14); fill-opacity: 1;"/><path class="point" transform="translate(124.51,341.32)" d="M3.5,0A3.5,3.5 0 1,1 0,-3.5A3.5,3.5 0 0,1 3.5,0Z" style="opacity: 1; stroke-width: 0px; fill: rgb(255, 127, 14); fill-opacity: 1;"/><path class="point" transform="translate(151.77,335.91)" d="M3.5,0A3.5,3.5 0 1,1 0,-3.5A3.5,3.5 0 0,1 3.5,0Z" style="opacity: 1; stroke-width: 0px; fill: rgb(255, 127, 14); fill-opacity: 1;"/><path class="point" transform="translate(179.03,319.72)" d="M3.5,0A3.5,3.5 0 1,1 0,-3.5A3.5,3.5 0 0,1 3.5,0Z" style="opacity: 1; stroke-width: 0px; fill: rgb(255, 127, 14); fill-opacity: 1;"/><path class="point" transform="translate(206.3,311.04)" d="M3.5,0A3.5,3.5 0 1,1 0,-3.5A3.5,3.5 0 0,1 3.5,0Z" style="opacity: 1; stroke-width: 0px; fill: rgb(255, 127, 14); fill-opacity: 1;"/><path class="point" transform="translate(233.56,310.98)" d="M3.5,0A3.5,3.5 0 1,1 0,-3.5A3.5,3.5 0 0,1 3.5,0Z" style="opacity: 1; stroke-width: 0px; fill: rgb(255, 127, 14); fill-opacity: 1;"/><path class="point" transform="translate(260.82,303.6)" d="M3.5,0A3.5,3.5 0 1,1 0,-3.5A3.5,3.5 0 0,1 3.5,0Z" style="opacity: 1; stroke-width: 0px; fill: rgb(255, 127, 14); fill-opacity: 1;"/><path class="point" transform="translate(288.08,300.73)" d="M3.5,0A3.5,3.5 0 1,1 0,-3.5A3.5,3.5 0 0,1 3.5,0Z" style="opacity: 1; stroke-width: 0px; fill: rgb(255, 127, 14); fill-opacity: 1;"/><path class="point" transform="translate(315.34,283.62)" d="M3.5,0A3.5,3.5 0 1,1 0,-3.5A3.5,3.5 0 0,1 3.5,0Z" style="opacity: 1; stroke-width: 0px; fill: rgb(255, 127, 14); fill-opacity: 1;"/><path class="point" transform="translate(342.61,272.08)" d="M3.5,0A3.5,3.5 0 1,1 0,-3.5A3.5,3.5 0 0,1 3.5,0Z" style="opacity: 1; stroke-width: 0px; fill: rgb(255, 127, 14); fill-opacity: 1;"/><path class="point" transform="translate(369.87,265.21)" d="M3.5,0A3.5,3.5 0 1,1 0,-3.5A3.5,3.5 0 0,1 3.5,0Z" style="opacity: 1; stroke-width: 0px; fill: rgb(255, 127, 14); fill-opacity: 1;"/><path class="point" transform="translate(397.13,262.87)" d="M3.5,0A3.5,3.5 0 1,1 0,-3.5A3.5,3.5 0 0,1 3.5,0Z" style="opacity: 1; stroke-width: 0px; fill: rgb(255, 127, 14); fill-opacity: 1;"/><path class="point" transform="translate(424.39,262.17)" d="M3.5,0A3.5,3.5 0 1,1 0,-3.5A3.5,3.5 0 0,1 3.5,0Z" style="opacity: 1; stroke-width: 0px; fill: rgb(255, 127, 14); fill-opacity: 1;"/><path class="point" transform="translate(451.66,261.27)" d="M3.5,0A3.5,3.5 0 1,1 0,-3.5A3.5,3.5 0 0,1 3.5,0Z" style="opacity: 1; stroke-width: 0px; fill: rgb(255, 127, 14); fill-opacity: 1;"/><path class="point" transform="translate(478.92,238.6)" d="M3.5,0A3.5,3.5 0 1,1 0,-3.5A3.5,3.5 0 0,1 3.5,0Z" style="opacity: 1; stroke-width: 0px; fill: rgb(255, 127, 14); fill-opacity: 1;"/><path class="point" transform="translate(506.18,235.46)" d="M3.5,0A3.5,3.5 0 1,1 0,-3.5A3.5,3.5 0 0,1 3.5,0Z" style="opacity: 1; stroke-width: 0px; fill: rgb(255, 127, 14); fill-opacity: 1;"/><path class="point" transform="translate(533.44,231.2)" d="M3.5,0A3.5,3.5 0 1,1 0,-3.5A3.5,3.5 0 0,1 3.5,0Z" style="opacity: 1; stroke-width: 0px; fill: rgb(255, 127, 14); fill-opacity: 1;"/><path class="point" transform="translate(560.7,221.23)" d="M3.5,0A3.5,3.5 0 1,1 0,-3.5A3.5,3.5 0 0,1 3.5,0Z" style="opacity: 1; stroke-width: 0px; fill: rgb(255, 127, 14); fill-opacity: 1;"/><path class="point" transform="translate(587.96,207.43)" d="M3.5,0A3.5,3.5 0 1,1 0,-3.5A3.5,3.5 0 0,1 3.5,0Z" style="opacity: 1; stroke-width: 0px; fill: rgb(255, 127, 14); fill-opacity: 1;"/><path class="point" transform="translate(615.23,192.12)" d="M3.5,0A3.5,3.5 0 1,1 0,-3.5A3.5,3.5 0 0,1 3.5,0Z" style="opacity: 1; stroke-width: 0px; fill: rgb(255, 127, 14); fill-opacity: 1;"/><path class="point" transform="translate(642.49,179.92)" d="M3.5,0A3.5,3.5 0 1,1 0,-3.5A3.5,3.5 0 0,1 3.5,0Z" style="opacity: 1; stroke-width: 0px; fill: rgb(255, 127, 14); fill-opacity: 1;"/><path class="point" transform="translate(669.75,176.66)" d="M3.5,0A3.5,3.5 0 1,1 0,-3.5A3.5,3.5 0 0,1 3.5,0Z" style="opacity: 1; stroke-width: 0px; fill: rgb(255, 127, 14); fill-opacity: 1;"/><path class="point" transform="translate(697.01,151.25)" d="M3.5,0A3.5,3.5 0 1,1 0,-3.5A3.5,3.5 0 0,1 3.5,0Z" style="opacity: 1; stroke-width: 0px; fill: rgb(255, 127, 14); fill-opacity: 1;"/><path class="point" transform="translate(724.28,145.92)" d="M3.5,0A3.5,3.5 0 1,1 0,-3.5A3.5,3.5 0 0,1 3.5,0Z" style="opacity: 1; stroke-width: 0px; fill: rgb(255, 127, 14); fill-opacity: 1;"/></g><g class="text"/></g></g></g><g class="overplot"/><path class="xlines-above crisp" d="M0,0" style="fill: none;"/><path class="ylines-above crisp" d="M82,50V473" style="fill: none; stroke-width: 2px; stroke: rgb(0, 0, 0); stroke-opacity: 1;"/><g class="overlines-above"/><g class="xaxislayer-above"><g class="xtick"><text text-anchor="start" x="0" y="493" transform="translate(125.72999999999999,0) rotate(90,0,483.5)" style="font-family: 'Open Sans', verdana, arial, sans-serif; font-size: 19px; fill: rgb(42, 63, 95); fill-opacity: 1; white-space: pre; opacity: 1;">#12 (0)</text></g><g class="xtick"><text text-anchor="start" x="0" y="493" transform="translate(152.99,0) rotate(90,0,483.5)" style="font-family: 'Open Sans', verdana, arial, sans-serif; font-size: 19px; fill: rgb(42, 63, 95); fill-opacity: 1; white-space: pre; opacity: 1;">#2 (1)</text></g><g class="xtick"><text text-anchor="start" x="0" y="493" transform="translate(180.25,0) rotate(90,0,483.5)" style="font-family: 'Open Sans', verdana, arial, sans-serif; font-size: 19px; fill: rgb(42, 63, 95); fill-opacity: 1; white-space: pre; opacity: 1;">#10 (1)</text></g><g class="xtick"><text text-anchor="start" x="0" y="493" transform="translate(207.51,0) rotate(90,0,483.5)" style="font-family: 'Open Sans', verdana, arial, sans-serif; font-size: 19px; fill: rgb(42, 63, 95); fill-opacity: 1; white-space: pre; opacity: 1;">#5 (0)</text></g><g class="xtick"><text text-anchor="start" x="0" y="493" transform="translate(234.77,0) rotate(90,0,483.5)" style="font-family: 'Open Sans', verdana, arial, sans-serif; font-size: 19px; fill: rgb(42, 63, 95); fill-opacity: 1; white-space: pre; opacity: 1;">#13 (1)</text></g><g class="xtick"><text text-anchor="start" x="0" y="493" transform="translate(262.03,0) rotate(90,0,483.5)" style="font-family: 'Open Sans', verdana, arial, sans-serif; font-size: 19px; fill: rgb(42, 63, 95); fill-opacity: 1; white-space: pre; opacity: 1;">#8 (0)</text></g><g class="xtick"><text text-anchor="start" x="0" y="493" transform="translate(289.3,0) rotate(90,0,483.5)" style="font-family: 'Open Sans', verdana, arial, sans-serif; font-size: 19px; fill: rgb(42, 63, 95); fill-opacity: 1; white-space: pre; opacity: 1;">#9 (0)</text></g><g class="xtick"><text text-anchor="start" x="0" y="493" transform="translate(316.56,0) rotate(90,0,483.5)" style="font-family: 'Open Sans', verdana, arial, sans-serif; font-size: 19px; fill: rgb(42, 63, 95); fill-opacity: 1; white-space: pre; opacity: 1;">#11 (1)</text></g><g class="xtick"><text text-anchor="start" x="0" y="493" transform="translate(343.82,0) rotate(90,0,483.5)" style="font-family: 'Open Sans', verdana, arial, sans-serif; font-size: 19px; fill: rgb(42, 63, 95); fill-opacity: 1; white-space: pre; opacity: 1;">#6 (0)</text></g><g class="xtick"><text text-anchor="start" x="0" y="493" transform="translate(371.08,0) rotate(90,0,483.5)" style="font-family: 'Open Sans', verdana, arial, sans-serif; font-size: 19px; fill: rgb(42, 63, 95); fill-opacity: 1; white-space: pre; opacity: 1;">#11 (0)</text></g><g class="xtick"><text text-anchor="start" x="0" y="493" transform="translate(398.34,0) rotate(90,0,483.5)" style="font-family: 'Open Sans', verdana, arial, sans-serif; font-size: 19px; fill: rgb(42, 63, 95); fill-opacity: 1; white-space: pre; opacity: 1;">#13 (0)</text></g><g class="xtick"><text text-anchor="start" x="0" y="493" transform="translate(425.61,0) rotate(90,0,483.5)" style="font-family: 'Open Sans', verdana, arial, sans-serif; font-size: 19px; fill: rgb(42, 63, 95); fill-opacity: 1; white-space: pre; opacity: 1;">#1 (0)</text></g><g class="xtick"><text text-anchor="start" x="0" y="493" transform="translate(452.87,0) rotate(90,0,483.5)" style="font-family: 'Open Sans', verdana, arial, sans-serif; font-size: 19px; fill: rgb(42, 63, 95); fill-opacity: 1; white-space: pre; opacity: 1;">#4 (0)</text></g><g class="xtick"><text text-anchor="start" x="0" y="493" transform="translate(480.13,0) rotate(90,0,483.5)" style="font-family: 'Open Sans', verdana, arial, sans-serif; font-size: 19px; fill: rgb(42, 63, 95); fill-opacity: 1; white-space: pre; opacity: 1;">#9 (1)</text></g><g class="xtick"><text text-anchor="start" x="0" y="493" transform="translate(507.39,0) rotate(90,0,483.5)" style="font-family: 'Open Sans', verdana, arial, sans-serif; font-size: 19px; fill: rgb(42, 63, 95); fill-opacity: 1; white-space: pre; opacity: 1;">#6 (1)</text></g><g class="xtick"><text text-anchor="start" x="0" y="493" transform="translate(534.6600000000001,0) rotate(90,0,483.5)" style="font-family: 'Open Sans', verdana, arial, sans-serif; font-size: 19px; fill: rgb(42, 63, 95); fill-opacity: 1; white-space: pre; opacity: 1;">#7 (1)</text></g><g class="xtick"><text text-anchor="start" x="0" y="493" transform="translate(561.9200000000001,0) rotate(90,0,483.5)" style="font-family: 'Open Sans', verdana, arial, sans-serif; font-size: 19px; fill: rgb(42, 63, 95); fill-opacity: 1; white-space: pre; opacity: 1;">#0 (0)</text></g><g class="xtick"><text text-anchor="start" x="0" y="493" transform="translate(589.1800000000001,0) rotate(90,0,483.5)" style="font-family: 'Open Sans', verdana, arial, sans-serif; font-size: 19px; fill: rgb(42, 63, 95); fill-opacity: 1; white-space: pre; opacity: 1;">#4 (1)</text></g><g class="xtick"><text text-anchor="start" x="0" y="493" transform="translate(616.44,0) rotate(90,0,483.5)" style="font-family: 'Open Sans', verdana, arial, sans-serif; font-size: 19px; fill: rgb(42, 63, 95); fill-opacity: 1; white-space: pre; opacity: 1;">#7 (0)</text></g><g class="xtick"><text text-anchor="start" x="0" y="493" transform="translate(643.7,0) rotate(90,0,483.5)" style="font-family: 'Open Sans', verdana, arial, sans-serif; font-size: 19px; fill: rgb(42, 63, 95); fill-opacity: 1; white-space: pre; opacity: 1;">#1 (1)</text></g><g class="xtick"><text text-anchor="start" x="0" y="493" transform="translate(670.96,0) rotate(90,0,483.5)" style="font-family: 'Open Sans', verdana, arial, sans-serif; font-size: 19px; fill: rgb(42, 63, 95); fill-opacity: 1; white-space: pre; opacity: 1;">#2 (0)</text></g><g class="xtick"><text text-anchor="start" x="0" y="493" transform="translate(698.23,0) rotate(90,0,483.5)" style="font-family: 'Open Sans', verdana, arial, sans-serif; font-size: 19px; fill: rgb(42, 63, 95); fill-opacity: 1; white-space: pre; opacity: 1;">#5 (1)</text></g><g class="xtick"><text text-anchor="start" x="0" y="493" transform="translate(725.49,0) rotate(90,0,483.5)" style="font-family: 'Open Sans', verdana, arial, sans-serif; font-size: 19px; fill: rgb(42, 63, 95); fill-opacity: 1; white-space: pre; opacity: 1;">#8 (1)</text></g><g class="xtick"><text text-anchor="start" x="0" y="493" transform="translate(752.75,0) rotate(90,0,483.5)" style="font-family: 'Open Sans', verdana, arial, sans-serif; font-size: 19px; fill: rgb(42, 63, 95); fill-opacity: 1; white-space: pre; opacity: 1;">#12 (1)</text></g><g class="xtick"><text text-anchor="start" x="0" y="493" transform="translate(780.01,0) rotate(90,0,483.5)" style="font-family: 'Open Sans', verdana, arial, sans-serif; font-size: 19px; fill: rgb(42, 63, 95); fill-opacity: 1; white-space: pre; opacity: 1;">#0 (1)</text></g><g class="xtick"><text text-anchor="start" x="0" y="493" transform="translate(807.28,0) rotate(90,0,483.5)" style="font-family: 'Open Sans', verdana, arial, sans-serif; font-size: 19px; fill: rgb(42, 63, 95); fill-opacity: 1; white-space: pre; opacity: 1;">#10 (0)</text></g></g><g class="yaxislayer-above"><path class="ytick ticks crisp" d="M83,0h2" transform="translate(0,457.89)" style="stroke: rgb(68, 68, 68); stroke-opacity: 1; stroke-width: 1px;"/><path class="ytick ticks crisp" d="M83,0h2" transform="translate(0,427.68)" style="stroke: rgb(68, 68, 68); stroke-opacity: 1; stroke-width: 1px;"/><path class="ytick ticks crisp" d="M83,0h2" transform="translate(0,412.57)" style="stroke: rgb(68, 68, 68); stroke-opacity: 1; stroke-width: 1px;"/><path class="ytick ticks crisp" d="M83,0h2" transform="translate(0,397.46)" style="stroke: rgb(68, 68, 68); stroke-opacity: 1; stroke-width: 1px;"/><path class="ytick ticks crisp" d="M83,0h2" transform="translate(0,367.25)" style="stroke: rgb(68, 68, 68); stroke-opacity: 1; stroke-width: 1px;"/><path class="ytick ticks crisp" d="M83,0h2" transform="translate(0,352.14)" style="stroke: rgb(68, 68, 68); stroke-opacity: 1; stroke-width: 1px;"/><path class="ytick ticks crisp" d="M83,0h2" transform="translate(0,337.04)" style="stroke: rgb(68, 68, 68); stroke-opacity: 1; stroke-width: 1px;"/><path class="ytick ticks crisp" d="M83,0h2" transform="translate(0,306.82)" style="stroke: rgb(68, 68, 68); stroke-opacity: 1; stroke-width: 1px;"/><path class="ytick ticks crisp" d="M83,0h2" transform="translate(0,291.71000000000004)" style="stroke: rgb(68, 68, 68); stroke-opacity: 1; stroke-width: 1px;"/><path class="ytick ticks crisp" d="M83,0h2" transform="translate(0,276.61)" style="stroke: rgb(68, 68, 68); stroke-opacity: 1; stroke-width: 1px;"/><path class="ytick ticks crisp" d="M83,0h2" transform="translate(0,246.39)" style="stroke: rgb(68, 68, 68); stroke-opacity: 1; stroke-width: 1px;"/><path class="ytick ticks crisp" d="M83,0h2" transform="translate(0,231.29)" style="stroke: rgb(68, 68, 68); stroke-opacity: 1; stroke-width: 1px;"/><path class="ytick ticks crisp" d="M83,0h2" transform="translate(0,216.18)" style="stroke: rgb(68, 68, 68); stroke-opacity: 1; stroke-width: 1px;"/><path class="ytick ticks crisp" d="M83,0h2" transform="translate(0,185.96)" style="stroke: rgb(68, 68, 68); stroke-opacity: 1; stroke-width: 1px;"/><path class="ytick ticks crisp" d="M83,0h2" transform="translate(0,170.86)" style="stroke: rgb(68, 68, 68); stroke-opacity: 1; stroke-width: 1px;"/><path class="ytick ticks crisp" d="M83,0h2" transform="translate(0,155.75)" style="stroke: rgb(68, 68, 68); stroke-opacity: 1; stroke-width: 1px;"/><path class="ytick ticks crisp" d="M83,0h2" transform="translate(0,125.54)" style="stroke: rgb(68, 68, 68); stroke-opacity: 1; stroke-width: 1px;"/><path class="ytick ticks crisp" d="M83,0h2" transform="translate(0,110.43)" style="stroke: rgb(68, 68, 68); stroke-opacity: 1; stroke-width: 1px;"/><path class="ytick ticks crisp" d="M83,0h2" transform="translate(0,95.32)" style="stroke: rgb(68, 68, 68); stroke-opacity: 1; stroke-width: 1px;"/><path class="ytick ticks crisp" d="M83,0h2" transform="translate(0,65.11)" style="stroke: rgb(68, 68, 68); stroke-opacity: 1; stroke-width: 1px;"/><path class="ytick ticks crisp" d="M83,0h5" transform="translate(0,442.79)" style="stroke: rgb(68, 68, 68); stroke-opacity: 1; stroke-width: 1px;"/><path class="ytick ticks crisp" d="M83,0h5" transform="translate(0,382.36)" style="stroke: rgb(68, 68, 68); stroke-opacity: 1; stroke-width: 1px;"/><path class="ytick ticks crisp" d="M83,0h5" transform="translate(0,321.93)" style="stroke: rgb(68, 68, 68); stroke-opacity: 1; stroke-width: 1px;"/><path class="ytick ticks crisp" d="M83,0h5" transform="translate(0,261.5)" style="stroke: rgb(68, 68, 68); stroke-opacity: 1; stroke-width: 1px;"/><path class="ytick ticks crisp" d="M83,0h5" transform="translate(0,201.07)" style="stroke: rgb(68, 68, 68); stroke-opacity: 1; stroke-width: 1px;"/><path class="ytick ticks crisp" d="M83,0h5" transform="translate(0,140.64)" style="stroke: rgb(68, 68, 68); stroke-opacity: 1; stroke-width: 1px;"/><path class="ytick ticks crisp" d="M83,0h5" transform="translate(0,80.21000000000001)" style="stroke: rgb(68, 68, 68); stroke-opacity: 1; stroke-width: 1px;"/><g class="ytick"><text text-anchor="end" x="77.2" y="6.6499999999999995" transform="translate(0,442.79)" style="font-family: 'Open Sans', verdana, arial, sans-serif; font-size: 19px; fill: rgb(42, 63, 95); fill-opacity: 1; white-space: pre; opacity: 1;">0</text></g><g class="ytick"><text text-anchor="end" x="77.2" y="6.6499999999999995" style="font-family: 'Open Sans', verdana, arial, sans-serif; font-size: 19px; fill: rgb(42, 63, 95); fill-opacity: 1; white-space: pre; opacity: 1;" transform="translate(0,382.36)">20</text></g><g class="ytick"><text text-anchor="end" x="77.2" y="6.6499999999999995" style="font-family: 'Open Sans', verdana, arial, sans-serif; font-size: 19px; fill: rgb(42, 63, 95); fill-opacity: 1; white-space: pre; opacity: 1;" transform="translate(0,321.93)">40</text></g><g class="ytick"><text text-anchor="end" x="77.2" y="6.6499999999999995" style="font-family: 'Open Sans', verdana, arial, sans-serif; font-size: 19px; fill: rgb(42, 63, 95); fill-opacity: 1; white-space: pre; opacity: 1;" transform="translate(0,261.5)">60</text></g><g class="ytick"><text text-anchor="end" x="77.2" y="6.6499999999999995" style="font-family: 'Open Sans', verdana, arial, sans-serif; font-size: 19px; fill: rgb(42, 63, 95); fill-opacity: 1; white-space: pre; opacity: 1;" transform="translate(0,201.07)">80</text></g><g class="ytick"><text text-anchor="end" x="77.2" y="6.6499999999999995" style="font-family: 'Open Sans', verdana, arial, sans-serif; font-size: 19px; fill: rgb(42, 63, 95); fill-opacity: 1; white-space: pre; opacity: 1;" transform="translate(0,140.64)">100</text></g><g class="ytick"><text text-anchor="end" x="77.2" y="6.6499999999999995" style="font-family: 'Open Sans', verdana, arial, sans-serif; font-size: 19px; fill: rgb(42, 63, 95); fill-opacity: 1; white-space: pre; opacity: 1;" transform="translate(0,80.21000000000001)">120</text></g></g><g class="overaxes-above"/></g></g><g class="polarlayer"/><g class="smithlayer"/><g class="ternarylayer"/><g class="geolayer"/><g class="funnelarealayer"/><g class="pielayer"/><g class="iciclelayer"/><g class="treemaplayer"/><g class="sunburstlayer"/><g class="glimages"/><defs id="topdefs-d41551"><g class="clips"/></defs><g class="layer-above"><g class="imagelayer"/><g class="shapelayer"/></g><g class="infolayer"><g class="g-gtitle"/><g class="g-xtitle"><text class="xtitle" x="466.5" y="590.334375" text-anchor="middle" style="font-family: 'Open Sans', verdana, arial, sans-serif; font-size: 23px; fill: rgb(42, 63, 95); opacity: 1; font-weight: normal; white-space: pre;">Individual IDs</text></g><g class="g-ytitle" transform="translate(13.146484375,0)"><text class="ytitle" transform="rotate(-90,9.853125000000006,261.5)" x="9.853125000000006" y="261.5" text-anchor="middle" style="font-family: 'Open Sans', verdana, arial, sans-serif; font-size: 23px; fill: rgb(42, 63, 95); opacity: 1; font-weight: normal; white-space: pre;">Individual gains from the battery [€]</text></g></g></svg>