<svg class="main-svg" xmlns="http://www.w3.org/2000/svg" xmlns:xlink="http://www.w3.org/1999/xlink" width="1000" height="700" style="" viewBox="0 0 1000 700"><rect x="0" y="0" width="1000" height="700" style="fill: rgb(255, 255, 255); fill-opacity: 1;"/><defs id="defs-faf1e7"><g class="clips"><clipPath id="clipfaf1e7xyplot" class="plotclip"><rect width="849" height="580"/></clipPath><clipPath class="axesclip" id="clipfaf1e7x"><rect x="101" y="0" width="849" height="700"/></clipPath><clipPath class="axesclip" id="clipfaf1e7y"><rect x="0" y="50" width="1000" height="580"/></clipPath><clipPath class="axesclip" id="clipfaf1e7xy"><rect x="101" y="50" width="849" height="580"/></clipPath></g><g class="gradients"/><g class="patterns"/></defs><g class="bglayer"/><g class="layer-below"><g class="imagelayer"/><g class="shapelayer"/></g><g class="cartesianlayer"><g class="subplot xy"><g class="layer-subplot"><g class="shapelayer"/><g class="imagelayer"/></g><g class="minor-gridlayer"><g class="x"><path class="xgrid crisp" transform="translate(121.96000000000001,0)" d="M0,50v580" style="stroke: rgb(213, 213, 213); stroke-opacity: 0.74; stroke-width: 1px;"/><path class="xgrid crisp" transform="translate(144.79,0)" d="M0,50v580" style="stroke: rgb(213, 213, 213); stroke-opacity: 0.74; stroke-width: 1px;"/><path class="xgrid crisp" transform="translate(167.61,0)" d="M0,50v580" style="stroke: rgb(213, 213, 213); stroke-opacity: 0.74; stroke-width: 1px;"/><path class="xgrid crisp" transform="translate(213.26,0)" d="M0,50v580" style="stroke: rgb(213, 213, 213); stroke-opacity: 0.74; stroke-width: 1px;"/><path class="xgrid crisp" transform="translate(236.09,0)" d="M0,50v580" style="stroke: rgb(213, 213, 213); stroke-opacity: 0.74; stroke-width: 1px;"/><path class="xgrid crisp" transform="translate(258.90999999999997,0)" d="M0,50v580" style="stroke: rgb(213, 213, 213); stroke-opacity: 0.74; stroke-width: 1px;"/><path class="xgrid crisp" transform="translate(281.74,0)" d="M0,50v580" style="stroke: rgb(213, 213, 213); stroke-opacity: 0.74; stroke-width: 1px;"/><path class="xgrid crisp" transform="translate(327.39,0)" d="M0,50v580" style="stroke: rgb(213, 213, 213); stroke-opacity: 0.74; stroke-width: 1px;"/><path class="xgrid crisp" transform="translate(350.22,0)" d="M0,50v580" style="stroke: rgb(213, 213, 213); stroke-opacity: 0.74; stroke-width: 1px;"/><path class="xgrid crisp" transform="translate(373.04,0)" d="M0,50v580" style="stroke: rgb(213, 213, 213); stroke-opacity: 0.74; stroke-width: 1px;"/><path class="xgrid crisp" transform="translate(395.87,0)" d="M0,50v580" style="stroke: rgb(213, 213, 213); stroke-opacity: 0.74; stroke-width: 1px;"/><path class="xgrid crisp" transform="translate(441.52,0)" d="M0,50v580" style="stroke: rgb(213, 213, 213); stroke-opacity: 0.74; stroke-width: 1px;"/><path class="xgrid crisp" transform="translate(464.34,0)" d="M0,50v580" style="stroke: rgb(213, 213, 213); stroke-opacity: 0.74; stroke-width: 1px;"/><path class="xgrid crisp" transform="translate(487.17,0)" d="M0,50v580" style="stroke: rgb(213, 213, 213); stroke-opacity: 0.74; stroke-width: 1px;"/><path class="xgrid crisp" transform="translate(509.99,0)" d="M0,50v580" style="stroke: rgb(213, 213, 213); stroke-opacity: 0.74; stroke-width: 1px;"/><path class="xgrid crisp" transform="translate(555.64,0)" d="M0,50v580" style="stroke: rgb(213, 213, 213); stroke-opacity: 0.74; stroke-width: 1px;"/><path class="xgrid crisp" transform="translate(578.47,0)" d="M0,50v580" style="stroke: rgb(213, 213, 213); stroke-opacity: 0.74; stroke-width: 1px;"/><path class="xgrid crisp" transform="translate(601.3,0)" d="M0,50v580" style="stroke: rgb(213, 213, 213); stroke-opacity: 0.74; stroke-width: 1px;"/><path class="xgrid crisp" transform="translate(624.12,0)" d="M0,50v580" style="stroke: rgb(213, 213, 213); stroke-opacity: 0.74; stroke-width: 1px;"/><path class="xgrid crisp" transform="translate(669.77,0)" d="M0,50v580" style="stroke: rgb(213, 213, 213); stroke-opacity: 0.74; stroke-width: 1px;"/><path class="xgrid crisp" transform="translate(692.6,0)" d="M0,50v580" style="stroke: rgb(213, 213, 213); stroke-opacity: 0.74; stroke-width: 1px;"/><path class="xgrid crisp" transform="translate(715.42,0)" d="M0,50v580" style="stroke: rgb(213, 213, 213); stroke-opacity: 0.74; stroke-width: 1px;"/><path class="xgrid crisp" transform="translate(738.25,0)" d="M0,50v580" style="stroke: rgb(213, 213, 213); stroke-opacity: 0.74; stroke-width: 1px;"/><path class="xgrid crisp" transform="translate(783.9,0)" d="M0,50v580" style="stroke: rgb(213, 213, 213); stroke-opacity: 0.74; stroke-width: 1px;"/><path class="xgrid crisp" transform="translate(806.72,0)" d="M0,50v580" style="stroke: rgb(213, 213, 213); stroke-opacity: 0.74; stroke-width: 1px;"/><path class="xgrid crisp" transform="translate(829.55,0)" d="M0,50v580" style="stroke: rgb(213, 213, 213); stroke-opacity: 0.74; stroke-width: 1px;"/><path class="xgrid crisp" transform="translate(852.38,0)" d="M0,50v580" style="stroke: rgb(213, 213, 213); stroke-opacity: 0.74; stroke-width: 1px;"/><path class="xgrid crisp" transform="translate(898.03,0)" d="M0,50v580" style="stroke: rgb(213, 213, 213); stroke-opacity: 0.74; stroke-width: 1px;"/><path class="xgrid crisp" transform="translate(920.85,0)" d="M0,50v580" style="stroke: rgb(213, 213, 213); stroke-opacity: 0.74; stroke-width: 1px;"/><path class="xgrid crisp" transform="translate(943.68,0)" d="M0,50v580" style="stroke: rgb(213, 213, 213); stroke-opacity: 0.74; stroke-width: 1px;"/></g><g class="y"/></g><g class="gridlayer"><g class="x"><path class="xgrid crisp" transform="translate(190.44,0)" d="M0,50v580" style="stroke: rgb(127, 127, 127); stroke-opacity: 0.2; stroke-width: 1px;"/><path class="xgrid crisp" transform="translate(304.57,0)" d="M0,50v580" style="stroke: rgb(127, 127, 127); stroke-opacity: 0.2; stroke-width: 1px;"/><path class="xgrid crisp" transform="translate(418.69,0)" d="M0,50v580" style="stroke: rgb(127, 127, 127); stroke-opacity: 0.2; stroke-width: 1px;"/><path class="xgrid crisp" transform="translate(532.8199999999999,0)" d="M0,50v580" style="stroke: rgb(127, 127, 127); stroke-opacity: 0.2; stroke-width: 1px;"/><path class="xgrid crisp" transform="translate(646.95,0)" d="M0,50v580" style="stroke: rgb(127, 127, 127); stroke-opacity: 0.2; stroke-width: 1px;"/><path class="xgrid crisp" transform="translate(761.07,0)" d="M0,50v580" style="stroke: rgb(127, 127, 127); stroke-opacity: 0.2; stroke-width: 1px;"/><path class="xgrid crisp" transform="translate(875.2,0)" d="M0,50v580" style="stroke: rgb(127, 127, 127); stroke-opacity: 0.2; stroke-width: 1px;"/></g><g class="y"><path class="ygrid crisp" transform="translate(0,585.1)" d="M101,0h849" style="stroke: rgb(127, 127, 127); stroke-opacity: 0.2; stroke-width: 1px;"/><path class="ygrid crisp" transform="translate(0,475.52)" d="M101,0h849" style="stroke: rgb(127, 127, 127); stroke-opacity: 0.2; stroke-width: 1px;"/><path class="ygrid crisp" transform="translate(0,365.94)" d="M101,0h849" style="stroke: rgb(127, 127, 127); stroke-opacity: 0.2; stroke-width: 1px;"/><path class="ygrid crisp" transform="translate(0,256.36)" d="M101,0h849" style="stroke: rgb(127, 127, 127); stroke-opacity: 0.2; stroke-width: 1px;"/><path class="ygrid crisp" transform="translate(0,146.79000000000002)" d="M101,0h849" style="stroke: rgb(127, 127, 127); stroke-opacity: 0.2; stroke-width: 1px;"/></g></g><g class="zerolinelayer"/><path class="xlines-below"/><path class="ylines-below"/><g class="overlines-below"/><g class="xaxislayer-below"/><g class="yaxislayer-below"/><g class="overaxes-below"/><g class="plot" transform="translate(101,50)" clip-path="url(#clipfaf1e7xyplot)"><g class="scatterlayer mlayer"><g class="trace scatter trace0678dc" style="stroke-miterlimit: 2; opacity: 1;"><g class="fills"/><g class="errorbars"/><g class="lines"><path class="js-line" d="M835.13,544.75L279.59,540.49L204.24,513.67L158.05,486.85L99.47,433.21L33.17,299.12L14.69,165.03L13.05,35.25" style="vector-effect: non-scaling-stroke; fill: none; stroke: rgb(31, 119, 180); stroke-opacity: 1; stroke-width: 3px; opacity: 1;"/></g><g class="points"><path class="point" transform="translate(835.13,544.75)" d="M5,0A5,5 0 1,1 0,-5A5,5 0 0,1 5,0Z" style="opacity: 1; stroke-width: 0px; fill: rgb(31, 119, 180); fill-opacity: 1;"/><path class="point" transform="translate(279.59,540.49)" d="M5,0A5,5 0 1,1 0,-5A5,5 0 0,1 5,0Z" style="opacity: 1; stroke-width: 0px; fill: rgb(31, 119, 180); fill-opacity: 1;"/><path class="point" transform="translate(204.24,513.67)" d="M5,0A5,5 0 1,1 0,-5A5,5 0 0,1 5,0Z" style="opacity: 1; stroke-width: 0px; fill: rgb(31, 119, 180); fill-opacity: 1;"/><path class="point" transform="translate(158.05,486.85)" d="M5,0A5,5 0 1,1 0,-5A5,5 0 0,1 5,0Z" style="opacity: 1; stroke-width: 0px; fill: rgb(31, 119, 180); fill-opacity: 1;"/><path class="point" transform="translate(99.47,433.21)" d="M5,0A5,5 0 1,1 0,-5A5,5 0 0,1 5,0Z" style="opacity: 1; stroke-width: 0px; fill: rgb(31, 119, 180); fill-opacity: 1;"/><path class="point" transform="translate(33.17,299.12)" d="M5,0A5,5 0 1,1 0,-5A5,5 0 0,1 5,0Z" style="opacity: 1; stroke-width: 0px; fill: rgb(31, 119, 180); fill-opacity: 1;"/><path class="point" transform="translate(14.69,165.03)" d="M5,0A5,5 0 1,1 0,-5A5,5 0 0,1 5,0Z" style="opacity: 1; stroke-width: 0px; fill: rgb(31, 119, 180); fill-opacity: 1;"/><path class="point" transform="translate(13.05,35.25)" d="M5,0A5,5 0 1,1 0,-5A5,5 0 0,1 5,0Z" style="opacity: 1; stroke-width: 0px; fill: rgb(31, 119, 180); fill-opacity: 1;"/></g><g class="text"/></g></g></g><g class="overplot"/><path class="xlines-above crisp" d="M99,631H950" style="fill: none; stroke-width: 2px; stroke: rgb(0, 0, 0); stroke-opacity: 1;"/><path class="ylines-above crisp" d="M100,50V630" style="fill: none; stroke-width: 2px; stroke: rgb(0, 0, 0); stroke-opacity: 1;"/><g class="overlines-above"/><g class="xaxislayer-above"><path class="xtick ticks crisp" d="M0,630v-2" transform="translate(121.96000000000001,0)" style="stroke: rgb(0, 0, 0); stroke-opacity: 1; stroke-width: 1px;"/><path class="xtick ticks crisp" d="M0,630v-2" transform="translate(144.79,0)" style="stroke: rgb(0, 0, 0); stroke-opacity: 1; stroke-width: 1px;"/><path class="xtick ticks crisp" d="M0,630v-2" transform="translate(167.61,0)" style="stroke: rgb(0, 0, 0); stroke-opacity: 1; stroke-width: 1px;"/><path class="xtick ticks crisp" d="M0,630v-2" transform="translate(213.26,0)" style="stroke: rgb(0, 0, 0); stroke-opacity: 1; stroke-width: 1px;"/><path class="xtick ticks crisp" d="M0,630v-2" transform="translate(236.09,0)" style="stroke: rgb(0, 0, 0); stroke-opacity: 1; stroke-width: 1px;"/><path class="xtick ticks crisp" d="M0,630v-2" transform="translate(258.90999999999997,0)" style="stroke: rgb(0, 0, 0); stroke-opacity: 1; stroke-width: 1px;"/><path class="xtick ticks crisp" d="M0,630v-2" transform="translate(281.74,0)" style="stroke: rgb(0, 0, 0); stroke-opacity: 1; stroke-width: 1px;"/><path class="xtick ticks crisp" d="M0,630v-2" transform="translate(327.39,0)" style="stroke: rgb(0, 0, 0); stroke-opacity: 1; stroke-width: 1px;"/><path class="xtick ticks crisp" d="M0,630v-2" transform="translate(350.22,0)" style="stroke: rgb(0, 0, 0); stroke-opacity: 1; stroke-width: 1px;"/><path class="xtick ticks crisp" d="M0,630v-2" transform="translate(373.04,0)" style="stroke: rgb(0, 0, 0); stroke-opacity: 1; stroke-width: 1px;"/><path class="xtick ticks crisp" d="M0,630v-2" transform="translate(395.87,0)" style="stroke: rgb(0, 0, 0); stroke-opacity: 1; stroke-width: 1px;"/><path class="xtick ticks crisp" d="M0,630v-2" transform="translate(441.52,0)" style="stroke: rgb(0, 0, 0); stroke-opacity: 1; stroke-width: 1px;"/><path class="xtick ticks crisp" d="M0,630v-2" transform="translate(464.34,0)" style="stroke: rgb(0, 0, 0); stroke-opacity: 1; stroke-width: 1px;"/><path class="xtick ticks crisp" d="M0,630v-2" transform="translate(487.17,0)" style="stroke: rgb(0, 0, 0); stroke-opacity: 1; stroke-width: 1px;"/><path class="xtick ticks crisp" d="M0,630v-2" transform="translate(509.99,0)" style="stroke: rgb(0, 0, 0); stroke-opacity: 1; stroke-width: 1px;"/><path class="xtick ticks crisp" d="M0,630v-2" transform="translate(555.64,0)" style="stroke: rgb(0, 0, 0); stroke-opacity: 1; stroke-width: 1px;"/><path class="xtick ticks crisp" d="M0,630v-2" transform="translate(578.47,0)" style="stroke: rgb(0, 0, 0); stroke-opacity: 1; stroke-width: 1px;"/><path class="xtick ticks crisp" d="M0,630v-2" transform="translate(601.3,0)" style="stroke: rgb(0, 0, 0); stroke-opacity: 1; stroke-width: 1px;"/><path class="xtick ticks crisp" d="M0,630v-2" transform="translate(624.12,0)" style="stroke: rgb(0, 0, 0); stroke-opacity: 1; stroke-width: 1px;"/><path class="xtick ticks crisp" d="M0,630v-2" transform="translate(669.77,0)" style="stroke: rgb(0, 0, 0); stroke-opacity: 1; stroke-width: 1px;"/><path class="xtick ticks crisp" d="M0,630v-2" transform="translate(692.6,0)" style="stroke: rgb(0, 0, 0); stroke-opacity: 1; stroke-width: 1px;"/><path class="xtick ticks crisp" d="M0,630v-2" transform="translate(715.42,0)" style="stroke: rgb(0, 0, 0); stroke-opacity: 1; stroke-width: 1px;"/><path class="xtick ticks crisp" d="M0,630v-2" transform="translate(738.25,0)" style="stroke: rgb(0, 0, 0); stroke-opacity: 1; stroke-width: 1px;"/><path class="xtick ticks crisp" d="M0,630v-2" transform="translate(783.9,0)" style="stroke: rgb(0, 0, 0); stroke-opacity: 1; stroke-width: 1px;"/><path class="xtick ticks crisp" d="M0,630v-2" transform="translate(806.72,0)" style="stroke: rgb(0, 0, 0); stroke-opacity: 1; stroke-width: 1px;"/><path class="xtick ticks crisp" d="M0,630v-2" transform="translate(829.55,0)" style="stroke: rgb(0, 0, 0); stroke-opacity: 1; stroke-width: 1px;"/><path class="xtick ticks crisp" d="M0,630v-2" transform="translate(852.38,0)" style="stroke: rgb(0, 0, 0); stroke-opacity: 1; stroke-width: 1px;"/><path class="xtick ticks crisp" d="M0,630v-2" transform="translate(898.03,0)" style="stroke: rgb(0, 0, 0); stroke-opacity: 1; stroke-width: 1px;"/><path class="xtick ticks crisp" d="M0,630v-2" transform="translate(920.85,0)" style="stroke: rgb(0, 0, 0); stroke-opacity: 1; stroke-width: 1px;"/><path class="xtick ticks crisp" d="M0,630v-2" transform="translate(943.68,0)" style="stroke: rgb(0, 0, 0); stroke-opacity: 1; stroke-width: 1px;"/><path class="xtick ticks crisp" d="M0,630v-5" transform="translate(190.44,0)" style="stroke: rgb(68, 68, 68); stroke-opacity: 1; stroke-width: 1px;"/><path class="xtick ticks crisp" d="M0,630v-5" transform="translate(304.57,0)" style="stroke: rgb(68, 68, 68); stroke-opacity: 1; stroke-width: 1px;"/><path class="xtick ticks crisp" d="M0,630v-5" transform="translate(418.69,0)" style="stroke: rgb(68, 68, 68); stroke-opacity: 1; stroke-width: 1px;"/><path class="xtick ticks crisp" d="M0,630v-5" transform="translate(532.8199999999999,0)" style="stroke: rgb(68, 68, 68); stroke-opacity: 1; stroke-width: 1px;"/><path class="xtick ticks crisp" d="M0,630v-5" transform="translate(646.95,0)" style="stroke: rgb(68, 68, 68); stroke-opacity: 1; stroke-width: 1px;"/><path class="xtick ticks crisp" d="M0,630v-5" transform="translate(761.07,0)" style="stroke: rgb(68, 68, 68); stroke-opacity: 1; stroke-width: 1px;"/><path class="xtick ticks crisp" d="M0,630v-5" transform="translate(875.2,0)" style="stroke: rgb(68, 68, 68); stroke-opacity: 1; stroke-width: 1px;"/><g class="xtick"><text text-anchor="middle" x="0" y="654.8" transform="translate(190.44,0)" style="font-family: 'Open Sans', verdana, arial, sans-serif; font-size: 19px; fill: rgb(42, 63, 95); fill-opacity: 1; white-space: pre; opacity: 1;">5750</text></g><g class="xtick"><text text-anchor="middle" x="0" y="654.8" style="font-family: 'Open Sans', verdana, arial, sans-serif; font-size: 19px; fill: rgb(42, 63, 95); fill-opacity: 1; white-space: pre; opacity: 1;" transform="translate(304.57,0)">5800</text></g><g class="xtick"><text text-anchor="middle" x="0" y="654.8" style="font-family: 'Open Sans', verdana, arial, sans-serif; font-size: 19px; fill: rgb(42, 63, 95); fill-opacity: 1; white-space: pre; opacity: 1;" transform="translate(418.69,0)">5850</text></g><g class="xtick"><text text-anchor="middle" x="0" y="654.8" style="font-family: 'Open Sans', verdana, arial, sans-serif; font-size: 19px; fill: rgb(42, 63, 95); fill-opacity: 1; white-space: pre; opacity: 1;" transform="translate(532.8199999999999,0)">5900</text></g><g class="xtick"><text text-anchor="middle" x="0" y="654.8" style="font-family: 'Open Sans', verdana, arial, sans-serif; font-size: 19px; fill: rgb(42, 63, 95); fill-opacity: 1; white-space: pre; opacity: 1;" transform="translate(646.95,0)">5950</text></g><g class="xtick"><text text-anchor="middle" x="0" y="654.8" style="font-family: 'Open Sans', verdana, arial, sans-serif; font-size: 19px; fill: rgb(42, 63, 95); fill-opacity: 1; white-space: pre; opacity: 1;" transform="translate(761.07,0)">6000</text></g><g class="xtick"><text text-anchor="middle" x="0" y="654.8" style="font-family: 'Open Sans', verdana, arial, sans-serif; font-size: 19px; fill: rgb(42, 63, 95); fill-opacity: 1; white-space: pre; opacity: 1;" transform="translate(875.2,0)">6050</text></g></g><g class="yaxislayer-above"><path class="ytick ticks crisp" d="M101,0h2" transform="translate(0,628.93)" style="stroke: rgb(68, 68, 68); stroke-opacity: 1; stroke-width: 1px;"/><path class="ytick ticks crisp" d="M101,0h2" transform="translate(0,607.01)" style="stroke: rgb(68, 68, 68); stroke-opacity: 1; stroke-width: 1px;"/><path class="ytick ticks crisp" d="M101,0h2" transform="translate(0,563.18)" style="stroke: rgb(68, 68, 68); stroke-opacity: 1; stroke-width: 1px;"/><path class="ytick ticks crisp" d="M101,0h2" transform="translate(0,541.27)" style="stroke: rgb(68, 68, 68); stroke-opacity: 1; stroke-width: 1px;"/><path class="ytick ticks crisp" d="M101,0h2" transform="translate(0,519.35)" style="stroke: rgb(68, 68, 68); stroke-opacity: 1; stroke-width: 1px;"/><path class="ytick ticks crisp" d="M101,0h2" transform="translate(0,497.44)" style="stroke: rgb(68, 68, 68); stroke-opacity: 1; stroke-width: 1px;"/><path class="ytick ticks crisp" d="M101,0h2" transform="translate(0,453.61)" style="stroke: rgb(68, 68, 68); stroke-opacity: 1; stroke-width: 1px;"/><path class="ytick ticks crisp" d="M101,0h2" transform="translate(0,431.69)" style="stroke: rgb(68, 68, 68); stroke-opacity: 1; stroke-width: 1px;"/><path class="ytick ticks crisp" d="M101,0h2" transform="translate(0,409.77)" style="stroke: rgb(68, 68, 68); stroke-opacity: 1; stroke-width: 1px;"/><path class="ytick ticks crisp" d="M101,0h2" transform="translate(0,387.86)" style="stroke: rgb(68, 68, 68); stroke-opacity: 1; stroke-width: 1px;"/><path class="ytick ticks crisp" d="M101,0h2" transform="translate(0,344.03)" style="stroke: rgb(68, 68, 68); stroke-opacity: 1; stroke-width: 1px;"/><path class="ytick ticks crisp" d="M101,0h2" transform="translate(0,322.11)" style="stroke: rgb(68, 68, 68); stroke-opacity: 1; stroke-width: 1px;"/><path class="ytick ticks crisp" d="M101,0h2" transform="translate(0,300.2)" style="stroke: rgb(68, 68, 68); stroke-opacity: 1; stroke-width: 1px;"/><path class="ytick ticks crisp" d="M101,0h2" transform="translate(0,278.28)" style="stroke: rgb(68, 68, 68); stroke-opacity: 1; stroke-width: 1px;"/><path class="ytick ticks crisp" d="M101,0h2" transform="translate(0,234.45)" style="stroke: rgb(68, 68, 68); stroke-opacity: 1; stroke-width: 1px;"/><path class="ytick ticks crisp" d="M101,0h2" transform="translate(0,212.53)" style="stroke: rgb(68, 68, 68); stroke-opacity: 1; stroke-width: 1px;"/><path class="ytick ticks crisp" d="M101,0h2" transform="translate(0,190.62)" style="stroke: rgb(68, 68, 68); stroke-opacity: 1; stroke-width: 1px;"/><path class="ytick ticks crisp" d="M101,0h2" transform="translate(0,168.7)" style="stroke: rgb(68, 68, 68); stroke-opacity: 1; stroke-width: 1px;"/><path class="ytick ticks crisp" d="M101,0h2" transform="translate(0,124.87)" style="stroke: rgb(68, 68, 68); stroke-opacity: 1; stroke-width: 1px;"/><path class="ytick ticks crisp" d="M101,0h2" transform="translate(0,102.96000000000001)" style="stroke: rgb(68, 68, 68); stroke-opacity: 1; stroke-width: 1px;"/><path class="ytick ticks crisp" d="M101,0h2" transform="translate(0,81.03999999999999)" style="stroke: rgb(68, 68, 68); stroke-opacity: 1; stroke-width: 1px;"/><path class="ytick ticks crisp" d="M101,0h2" transform="translate(0,59.12)" style="stroke: rgb(68, 68, 68); stroke-opacity: 1; stroke-width: 1px;"/><path class="ytick ticks crisp" d="M101,0h5" transform="translate(0,585.1)" style="stroke: rgb(68, 68, 68); stroke-opacity: 1; stroke-width: 1px;"/><path class="ytick ticks crisp" d="M101,0h5" transform="translate(0,475.52)" style="stroke: rgb(68, 68, 68); stroke-opacity: 1; stroke-width: 1px;"/><path class="ytick ticks crisp" d="M101,0h5" transform="translate(0,365.94)" style="stroke: rgb(68, 68, 68); stroke-opacity: 1; stroke-width: 1px;"/><path class="ytick ticks crisp" d="M101,0h5" transform="translate(0,256.36)" style="stroke: rgb(68, 68, 68); stroke-opacity: 1; stroke-width: 1px;"/><path class="ytick ticks crisp" d="M101,0h5" transform="translate(0,146.79000000000002)" style="stroke: rgb(68, 68, 68); stroke-opacity: 1; stroke-width: 1px;"/><g class="ytick"><text text-anchor="end" x="95.2" y="6.6499999999999995" transform="translate(0,585.1)" style="font-family: 'Open Sans', verdana, arial, sans-serif; font-size: 19px; fill: rgb(42, 63, 95); fill-opacity: 1; white-space: pre; opacity: 1;">38.9k</text></g><g class="ytick"><text text-anchor="end" x="95.2" y="6.6499999999999995" style="font-family: 'Open Sans', verdana, arial, sans-serif; font-size: 19px; fill: rgb(42, 63, 95); fill-opacity: 1; white-space: pre; opacity: 1;" transform="translate(0,475.52)">39k</text></g><g class="ytick"><text text-anchor="end" x="95.2" y="6.6499999999999995" style="font-family: 'Open Sans', verdana, arial, sans-serif; font-size: 19px; fill: rgb(42, 63, 95); fill-opacity: 1; white-space: pre; opacity: 1;" transform="translate(0,365.94)">39.1k</text></g><g class="ytick"><text text-anchor="end" x="95.2" y="6.6499999999999995" style="font-family: 'Open Sans', verdana, arial, sans-serif; font-size: 19px; fill: rgb(42, 63, 95); fill-opacity: 1; white-space: pre; opacity: 1;" transform="translate(0,256.36)">39.2k</text></g><g class="ytick"><text text-anchor="end" x="95.2" y="6.6499999999999995" style="font-family: 'Open Sans', verdana, arial, sans-serif; font-size: 19px; fill: rgb(42, 63, 95); fill-opacity: 1; white-space: pre; opacity: 1;" transform="translate(0,146.79000000000002)">39.3k</text></g></g><g class="overaxes-above"/></g></g><g class="polarlayer"/><g class="smithlayer"/><g class="ternarylayer"/><g class="geolayer"/><g class="funnelarealayer"/><g class="pielayer"/><g class="iciclelayer"/><g class="treemaplayer"/><g class="sunburstlayer"/><g class="glimages"/><defs id="topdefs-faf1e7"><g class="clips"/></defs><g class="layer-above"><g class="imagelayer"/><g class="shapelayer"><path data-index="0" fill-rule="evenodd" d="M114.05,630L114.05,50" clip-path="url(#clipfaf1e7x)" style="opacity: 0.5; stroke: rgb(214, 39, 40); stroke-opacity: 1; fill: rgb(0, 0, 0); fill-opacity: 0; stroke-dasharray: 3px, 3px; stroke-width: 2px;"/><path data-index="1" fill-rule="evenodd" d="M101,594.75L950,594.75" clip-path="url(#clipfaf1e7y)" style="opacity: 0.5; stroke: rgb(214, 39, 40); stroke-opacity: 1; fill: rgb(0, 0, 0); fill-opacity: 0; stroke-dasharray: 3px, 3px; stroke-width: 2px;"/></g></g><g class="infolayer"><g class="g-gtitle"/><g class="g-xtitle"><text class="xtitle" x="525.5" y="689.9125" text-anchor="middle" style="font-family: 'Open Sans', verdana, arial, sans-serif; font-size: 23px; fill: rgb(42, 63, 95); opacity: 1; font-weight: normal; white-space: pre;">Network losses [kWh]</text></g><g class="g-ytitle" transform="translate(13.302734375,0)"><text class="ytitle" transform="rotate(-90,9.696875000000006,340)" x="9.696875000000006" y="340" text-anchor="middle" style="font-family: 'Open Sans', verdana, arial, sans-serif; font-size: 23px; fill: rgb(42, 63, 95); opacity: 1; font-weight: normal; white-space: pre;">Community energy cost [€]</text></g></g></svg>