<svg class="main-svg" xmlns="http://www.w3.org/2000/svg" xmlns:xlink="http://www.w3.org/1999/xlink" width="1000" height="700" style="" viewBox="0 0 1000 700"><rect x="0" y="0" width="1000" height="700" style="fill: rgb(255, 255, 255); fill-opacity: 1;"/><defs id="defs-e2897a"><g class="clips"><clipPath id="clipe2897axyplot" class="plotclip"><rect width="849" height="580"/></clipPath><clipPath class="axesclip" id="clipe2897ax"><rect x="101" y="0" width="849" height="700"/></clipPath><clipPath class="axesclip" id="clipe2897ay"><rect x="0" y="50" width="1000" height="580"/></clipPath><clipPath class="axesclip" id="clipe2897axy"><rect x="101" y="50" width="849" height="580"/></clipPath></g><g class="gradients"/><g class="patterns"/></defs><g class="bglayer"/><g class="layer-below"><g class="imagelayer"/><g class="shapelayer"/></g><g class="cartesianlayer"><g class="subplot xy"><g class="layer-subplot"><g class="shapelayer"/><g class="imagelayer"/></g><g class="minor-gridlayer"><g class="x"><path class="xgrid crisp" transform="translate(117.47,0)" d="M0,50v580" style="stroke: rgb(213, 213, 213); stroke-opacity: 0.74; stroke-width: 1px;"/><path class="xgrid crisp" transform="translate(135.39,0)" d="M0,50v580" style="stroke: rgb(213, 213, 213); stroke-opacity: 0.74; stroke-width: 1px;"/><path class="xgrid crisp" transform="translate(153.32,0)" d="M0,50v580" style="stroke: rgb(213, 213, 213); stroke-opacity: 0.74; stroke-width: 1px;"/><path class="xgrid crisp" transform="translate(189.18,0)" d="M0,50v580" style="stroke: rgb(213, 213, 213); stroke-opacity: 0.74; stroke-width: 1px;"/><path class="xgrid crisp" transform="translate(207.11,0)" d="M0,50v580" style="stroke: rgb(213, 213, 213); stroke-opacity: 0.74; stroke-width: 1px;"/><path class="xgrid crisp" transform="translate(225.04000000000002,0)" d="M0,50v580" style="stroke: rgb(213, 213, 213); stroke-opacity: 0.74; stroke-width: 1px;"/><path class="xgrid crisp" transform="translate(242.96,0)" d="M0,50v580" style="stroke: rgb(213, 213, 213); stroke-opacity: 0.74; stroke-width: 1px;"/><path class="xgrid crisp" transform="translate(278.82,0)" d="M0,50v580" style="stroke: rgb(213, 213, 213); stroke-opacity: 0.74; stroke-width: 1px;"/><path class="xgrid crisp" transform="translate(296.75,0)" d="M0,50v580" style="stroke: rgb(213, 213, 213); stroke-opacity: 0.74; stroke-width: 1px;"/><path class="xgrid crisp" transform="translate(314.68,0)" d="M0,50v580" style="stroke: rgb(213, 213, 213); stroke-opacity: 0.74; stroke-width: 1px;"/><path class="xgrid crisp" transform="translate(332.61,0)" d="M0,50v580" style="stroke: rgb(213, 213, 213); stroke-opacity: 0.74; stroke-width: 1px;"/><path class="xgrid crisp" transform="translate(368.46,0)" d="M0,50v580" style="stroke: rgb(213, 213, 213); stroke-opacity: 0.74; stroke-width: 1px;"/><path class="xgrid crisp" transform="translate(386.39,0)" d="M0,50v580" style="stroke: rgb(213, 213, 213); stroke-opacity: 0.74; stroke-width: 1px;"/><path class="xgrid crisp" transform="translate(404.32,0)" d="M0,50v580" style="stroke: rgb(213, 213, 213); stroke-opacity: 0.74; stroke-width: 1px;"/><path class="xgrid crisp" transform="translate(422.25,0)" d="M0,50v580" style="stroke: rgb(213, 213, 213); stroke-opacity: 0.74; stroke-width: 1px;"/><path class="xgrid crisp" transform="translate(458.11,0)" d="M0,50v580" style="stroke: rgb(213, 213, 213); stroke-opacity: 0.74; stroke-width: 1px;"/><path class="xgrid crisp" transform="translate(476.03,0)" d="M0,50v580" style="stroke: rgb(213, 213, 213); stroke-opacity: 0.74; stroke-width: 1px;"/><path class="xgrid crisp" transform="translate(493.96,0)" d="M0,50v580" style="stroke: rgb(213, 213, 213); stroke-opacity: 0.74; stroke-width: 1px;"/><path class="xgrid crisp" transform="translate(511.89,0)" d="M0,50v580" style="stroke: rgb(213, 213, 213); stroke-opacity: 0.74; stroke-width: 1px;"/><path class="xgrid crisp" transform="translate(547.75,0)" d="M0,50v580" style="stroke: rgb(213, 213, 213); stroke-opacity: 0.74; stroke-width: 1px;"/><path class="xgrid crisp" transform="translate(565.6800000000001,0)" d="M0,50v580" style="stroke: rgb(213, 213, 213); stroke-opacity: 0.74; stroke-width: 1px;"/><path class="xgrid crisp" transform="translate(583.6,0)" d="M0,50v580" style="stroke: rgb(213, 213, 213); stroke-opacity: 0.74; stroke-width: 1px;"/><path class="xgrid crisp" transform="translate(601.53,0)" d="M0,50v580" style="stroke: rgb(213, 213, 213); stroke-opacity: 0.74; stroke-width: 1px;"/><path class="xgrid crisp" transform="translate(637.39,0)" d="M0,50v580" style="stroke: rgb(213, 213, 213); stroke-opacity: 0.74; stroke-width: 1px;"/><path class="xgrid crisp" transform="translate(655.32,0)" d="M0,50v580" style="stroke: rgb(213, 213, 213); stroke-opacity: 0.74; stroke-width: 1px;"/><path class="xgrid crisp" transform="translate(673.25,0)" d="M0,50v580" style="stroke: rgb(213, 213, 213); stroke-opacity: 0.74; stroke-width: 1px;"/><path class="xgrid crisp" transform="translate(691.18,0)" d="M0,50v580" style="stroke: rgb(213, 213, 213); stroke-opacity: 0.74; stroke-width: 1px;"/><path class="xgrid crisp" transform="translate(727.03,0)" d="M0,50v580" style="stroke: rgb(213, 213, 213); stroke-opacity: 0.74; stroke-width: 1px;"/><path class="xgrid crisp" transform="translate(744.96,0)" d="M0,50v580" style="stroke: rgb(213, 213, 213); stroke-opacity: 0.74; stroke-width: 1px;"/><path class="xgrid crisp" transform="translate(762.89,0)" d="M0,50v580" style="stroke: rgb(213, 213, 213); stroke-opacity: 0.74; stroke-width: 1px;"/><path class="xgrid crisp" transform="translate(780.82,0)" d="M0,50v580" style="stroke: rgb(213, 213, 213); stroke-opacity: 0.74; stroke-width: 1px;"/><path class="xgrid crisp" transform="translate(816.67,0)" d="M0,50v580" style="stroke: rgb(213, 213, 213); stroke-opacity: 0.74; stroke-width: 1px;"/><path class="xgrid crisp" transform="translate(834.6,0)" d="M0,50v580" style="stroke: rgb(213, 213, 213); stroke-opacity: 0.74; stroke-width: 1px;"/><path class="xgrid crisp" transform="translate(852.53,0)" d="M0,50v580" style="stroke: rgb(213, 213, 213); stroke-opacity: 0.74; stroke-width: 1px;"/><path class="xgrid crisp" transform="translate(870.46,0)" d="M0,50v580" style="stroke: rgb(213, 213, 213); stroke-opacity: 0.74; stroke-width: 1px;"/><path class="xgrid crisp" transform="translate(906.32,0)" d="M0,50v580" style="stroke: rgb(213, 213, 213); stroke-opacity: 0.74; stroke-width: 1px;"/><path class="xgrid crisp" transform="translate(924.25,0)" d="M0,50v580" style="stroke: rgb(213, 213, 213); stroke-opacity: 0.74; stroke-width: 1px;"/><path class="xgrid crisp" transform="translate(942.17,0)" d="M0,50v580" style="stroke: rgb(213, 213, 213); stroke-opacity: 0.74; stroke-width: 1px;"/></g><g class="y"/></g><g class="gridlayer"><g class="x"><path class="xgrid crisp" transform="translate(171.25,0)" d="M0,50v580" style="stroke: rgb(127, 127, 127); stroke-opacity: 0.2; stroke-width: 1px;"/><path class="xgrid crisp" transform="translate(260.89,0)" d="M0,50v580" style="stroke: rgb(127, 127, 127); stroke-opacity: 0.2; stroke-width: 1px;"/><path class="xgrid crisp" transform="translate(350.53999999999996,0)" d="M0,50v580" style="stroke: rgb(127, 127, 127); stroke-opacity: 0.2; stroke-width: 1px;"/><path class="xgrid crisp" transform="translate(440.18,0)" d="M0,50v580" style="stroke: rgb(127, 127, 127); stroke-opacity: 0.2; stroke-width: 1px;"/><path class="xgrid crisp" transform="translate(529.8199999999999,0)" d="M0,50v580" style="stroke: rgb(127, 127, 127); stroke-opacity: 0.2; stroke-width: 1px;"/><path class="xgrid crisp" transform="translate(619.46,0)" d="M0,50v580" style="stroke: rgb(127, 127, 127); stroke-opacity: 0.2; stroke-width: 1px;"/><path class="xgrid crisp" transform="translate(709.1,0)" d="M0,50v580" style="stroke: rgb(127, 127, 127); stroke-opacity: 0.2; stroke-width: 1px;"/><path class="xgrid crisp" transform="translate(798.75,0)" d="M0,50v580" style="stroke: rgb(127, 127, 127); stroke-opacity: 0.2; stroke-width: 1px;"/><path class="xgrid crisp" transform="translate(888.39,0)" d="M0,50v580" style="stroke: rgb(127, 127, 127); stroke-opacity: 0.2; stroke-width: 1px;"/></g><g class="y"><path class="ygrid crisp" transform="translate(0,606.53)" d="M101,0h849" style="stroke: rgb(127, 127, 127); stroke-opacity: 0.2; stroke-width: 1px;"/><path class="ygrid crisp" transform="translate(0,530.4300000000001)" d="M101,0h849" style="stroke: rgb(127, 127, 127); stroke-opacity: 0.2; stroke-width: 1px;"/><path class="ygrid crisp" transform="translate(0,454.32)" d="M101,0h849" style="stroke: rgb(127, 127, 127); stroke-opacity: 0.2; stroke-width: 1px;"/><path class="ygrid crisp" transform="translate(0,378.22)" d="M101,0h849" style="stroke: rgb(127, 127, 127); stroke-opacity: 0.2; stroke-width: 1px;"/><path class="ygrid crisp" transform="translate(0,302.12)" d="M101,0h849" style="stroke: rgb(127, 127, 127); stroke-opacity: 0.2; stroke-width: 1px;"/><path class="ygrid crisp" transform="translate(0,226.01)" d="M101,0h849" style="stroke: rgb(127, 127, 127); stroke-opacity: 0.2; stroke-width: 1px;"/><path class="ygrid crisp" transform="translate(0,149.91)" d="M101,0h849" style="stroke: rgb(127, 127, 127); stroke-opacity: 0.2; stroke-width: 1px;"/><path class="ygrid crisp" transform="translate(0,73.8)" d="M101,0h849" style="stroke: rgb(127, 127, 127); stroke-opacity: 0.2; stroke-width: 1px;"/></g></g><g class="zerolinelayer"/><path class="xlines-below"/><path class="ylines-below"/><g class="overlines-below"/><g class="xaxislayer-below"/><g class="yaxislayer-below"/><g class="overaxes-below"/><g class="plot" transform="translate(101,50)" clip-path="url(#clipe2897axyplot)"><g class="scatterlayer mlayer"><g class="trace scatter trace8f1636" style="stroke-miterlimit: 2; opacity: 1;"><g class="fills"/><g class="errorbars"/><g class="lines"><path class="js-line" d="M837.92,544.75L230.83,543.25L138.13,516.43L93.25,489.61L47.6,435.98L14.88,301.88L10.35,167.79L10.25,35.25" style="vector-effect: non-scaling-stroke; fill: none; stroke: rgb(31, 119, 180); stroke-opacity: 1; stroke-width: 3px; opacity: 1;"/></g><g class="points"><path class="point" transform="translate(837.92,544.75)" d="M5,0A5,5 0 1,1 0,-5A5,5 0 0,1 5,0Z" style="opacity: 1; stroke-width: 0px; fill: rgb(31, 119, 180); fill-opacity: 1;"/><path class="point" transform="translate(230.83,543.25)" d="M5,0A5,5 0 1,1 0,-5A5,5 0 0,1 5,0Z" style="opacity: 1; stroke-width: 0px; fill: rgb(31, 119, 180); fill-opacity: 1;"/><path class="point" transform="translate(138.13,516.43)" d="M5,0A5,5 0 1,1 0,-5A5,5 0 0,1 5,0Z" style="opacity: 1; stroke-width: 0px; fill: rgb(31, 119, 180); fill-opacity: 1;"/><path class="point" transform="translate(93.25,489.61)" d="M5,0A5,5 0 1,1 0,-5A5,5 0 0,1 5,0Z" style="opacity: 1; stroke-width: 0px; fill: rgb(31, 119, 180); fill-opacity: 1;"/><path class="point" transform="translate(47.6,435.98)" d="M5,0A5,5 0 1,1 0,-5A5,5 0 0,1 5,0Z" style="opacity: 1; stroke-width: 0px; fill: rgb(31, 119, 180); fill-opacity: 1;"/><path class="point" transform="translate(14.88,301.88)" d="M5,0A5,5 0 1,1 0,-5A5,5 0 0,1 5,0Z" style="opacity: 1; stroke-width: 0px; fill: rgb(31, 119, 180); fill-opacity: 1;"/><path class="point" transform="translate(10.35,167.79)" d="M5,0A5,5 0 1,1 0,-5A5,5 0 0,1 5,0Z" style="opacity: 1; stroke-width: 0px; fill: rgb(31, 119, 180); fill-opacity: 1;"/><path class="point" transform="translate(10.25,35.25)" d="M5,0A5,5 0 1,1 0,-5A5,5 0 0,1 5,0Z" style="opacity: 1; stroke-width: 0px; fill: rgb(31, 119, 180); fill-opacity: 1;"/></g><g class="text"/></g></g></g><g class="overplot"/><path class="xlines-above crisp" d="M99,631H950" style="fill: none; stroke-width: 2px; stroke: rgb(0, 0, 0); stroke-opacity: 1;"/><path class="ylines-above crisp" d="M100,50V630" style="fill: none; stroke-width: 2px; stroke: rgb(0, 0, 0); stroke-opacity: 1;"/><g class="overlines-above"/><g class="xaxislayer-above"><path class="xtick ticks crisp" d="M0,630v-2" transform="translate(117.47,0)" style="stroke: rgb(0, 0, 0); stroke-opacity: 1; stroke-width: 1px;"/><path class="xtick ticks crisp" d="M0,630v-2" transform="translate(135.39,0)" style="stroke: rgb(0, 0, 0); stroke-opacity: 1; stroke-width: 1px;"/><path class="xtick ticks crisp" d="M0,630v-2" transform="translate(153.32,0)" style="stroke: rgb(0, 0, 0); stroke-opacity: 1; stroke-width: 1px;"/><path class="xtick ticks crisp" d="M0,630v-2" transform="translate(189.18,0)" style="stroke: rgb(0, 0, 0); stroke-opacity: 1; stroke-width: 1px;"/><path class="xtick ticks crisp" d="M0,630v-2" transform="translate(207.11,0)" style="stroke: rgb(0, 0, 0); stroke-opacity: 1; stroke-width: 1px;"/><path class="xtick ticks crisp" d="M0,630v-2" transform="translate(225.04000000000002,0)" style="stroke: rgb(0, 0, 0); stroke-opacity: 1; stroke-width: 1px;"/><path class="xtick ticks crisp" d="M0,630v-2" transform="translate(242.96,0)" style="stroke: rgb(0, 0, 0); stroke-opacity: 1; stroke-width: 1px;"/><path class="xtick ticks crisp" d="M0,630v-2" transform="translate(278.82,0)" style="stroke: rgb(0, 0, 0); stroke-opacity: 1; stroke-width: 1px;"/><path class="xtick ticks crisp" d="M0,630v-2" transform="translate(296.75,0)" style="stroke: rgb(0, 0, 0); stroke-opacity: 1; stroke-width: 1px;"/><path class="xtick ticks crisp" d="M0,630v-2" transform="translate(314.68,0)" style="stroke: rgb(0, 0, 0); stroke-opacity: 1; stroke-width: 1px;"/><path class="xtick ticks crisp" d="M0,630v-2" transform="translate(332.61,0)" style="stroke: rgb(0, 0, 0); stroke-opacity: 1; stroke-width: 1px;"/><path class="xtick ticks crisp" d="M0,630v-2" transform="translate(368.46,0)" style="stroke: rgb(0, 0, 0); stroke-opacity: 1; stroke-width: 1px;"/><path class="xtick ticks crisp" d="M0,630v-2" transform="translate(386.39,0)" style="stroke: rgb(0, 0, 0); stroke-opacity: 1; stroke-width: 1px;"/><path class="xtick ticks crisp" d="M0,630v-2" transform="translate(404.32,0)" style="stroke: rgb(0, 0, 0); stroke-opacity: 1; stroke-width: 1px;"/><path class="xtick ticks crisp" d="M0,630v-2" transform="translate(422.25,0)" style="stroke: rgb(0, 0, 0); stroke-opacity: 1; stroke-width: 1px;"/><path class="xtick ticks crisp" d="M0,630v-2" transform="translate(458.11,0)" style="stroke: rgb(0, 0, 0); stroke-opacity: 1; stroke-width: 1px;"/><path class="xtick ticks crisp" d="M0,630v-2" transform="translate(476.03,0)" style="stroke: rgb(0, 0, 0); stroke-opacity: 1; stroke-width: 1px;"/><path class="xtick ticks crisp" d="M0,630v-2" transform="translate(493.96,0)" style="stroke: rgb(0, 0, 0); stroke-opacity: 1; stroke-width: 1px;"/><path class="xtick ticks crisp" d="M0,630v-2" transform="translate(511.89,0)" style="stroke: rgb(0, 0, 0); stroke-opacity: 1; stroke-width: 1px;"/><path class="xtick ticks crisp" d="M0,630v-2" transform="translate(547.75,0)" style="stroke: rgb(0, 0, 0); stroke-opacity: 1; stroke-width: 1px;"/><path class="xtick ticks crisp" d="M0,630v-2" transform="translate(565.6800000000001,0)" style="stroke: rgb(0, 0, 0); stroke-opacity: 1; stroke-width: 1px;"/><path class="xtick ticks crisp" d="M0,630v-2" transform="translate(583.6,0)" style="stroke: rgb(0, 0, 0); stroke-opacity: 1; stroke-width: 1px;"/><path class="xtick ticks crisp" d="M0,630v-2" transform="translate(601.53,0)" style="stroke: rgb(0, 0, 0); stroke-opacity: 1; stroke-width: 1px;"/><path class="xtick ticks crisp" d="M0,630v-2" transform="translate(637.39,0)" style="stroke: rgb(0, 0, 0); stroke-opacity: 1; stroke-width: 1px;"/><path class="xtick ticks crisp" d="M0,630v-2" transform="translate(655.32,0)" style="stroke: rgb(0, 0, 0); stroke-opacity: 1; stroke-width: 1px;"/><path class="xtick ticks crisp" d="M0,630v-2" transform="translate(673.25,0)" style="stroke: rgb(0, 0, 0); stroke-opacity: 1; stroke-width: 1px;"/><path class="xtick ticks crisp" d="M0,630v-2" transform="translate(691.18,0)" style="stroke: rgb(0, 0, 0); stroke-opacity: 1; stroke-width: 1px;"/><path class="xtick ticks crisp" d="M0,630v-2" transform="translate(727.03,0)" style="stroke: rgb(0, 0, 0); stroke-opacity: 1; stroke-width: 1px;"/><path class="xtick ticks crisp" d="M0,630v-2" transform="translate(744.96,0)" style="stroke: rgb(0, 0, 0); stroke-opacity: 1; stroke-width: 1px;"/><path class="xtick ticks crisp" d="M0,630v-2" transform="translate(762.89,0)" style="stroke: rgb(0, 0, 0); stroke-opacity: 1; stroke-width: 1px;"/><path class="xtick ticks crisp" d="M0,630v-2" transform="translate(780.82,0)" style="stroke: rgb(0, 0, 0); stroke-opacity: 1; stroke-width: 1px;"/><path class="xtick ticks crisp" d="M0,630v-2" transform="translate(816.67,0)" style="stroke: rgb(0, 0, 0); stroke-opacity: 1; stroke-width: 1px;"/><path class="xtick ticks crisp" d="M0,630v-2" transform="translate(834.6,0)" style="stroke: rgb(0, 0, 0); stroke-opacity: 1; stroke-width: 1px;"/><path class="xtick ticks crisp" d="M0,630v-2" transform="translate(852.53,0)" style="stroke: rgb(0, 0, 0); stroke-opacity: 1; stroke-width: 1px;"/><path class="xtick ticks crisp" d="M0,630v-2" transform="translate(870.46,0)" style="stroke: rgb(0, 0, 0); stroke-opacity: 1; stroke-width: 1px;"/><path class="xtick ticks crisp" d="M0,630v-2" transform="translate(906.32,0)" style="stroke: rgb(0, 0, 0); stroke-opacity: 1; stroke-width: 1px;"/><path class="xtick ticks crisp" d="M0,630v-2" transform="translate(924.25,0)" style="stroke: rgb(0, 0, 0); stroke-opacity: 1; stroke-width: 1px;"/><path class="xtick ticks crisp" d="M0,630v-2" transform="translate(942.17,0)" style="stroke: rgb(0, 0, 0); stroke-opacity: 1; stroke-width: 1px;"/><path class="xtick ticks crisp" d="M0,630v-5" transform="translate(171.25,0)" style="stroke: rgb(68, 68, 68); stroke-opacity: 1; stroke-width: 1px;"/><path class="xtick ticks crisp" d="M0,630v-5" transform="translate(260.89,0)" style="stroke: rgb(68, 68, 68); stroke-opacity: 1; stroke-width: 1px;"/><path class="xtick ticks crisp" d="M0,630v-5" transform="translate(350.53999999999996,0)" style="stroke: rgb(68, 68, 68); stroke-opacity: 1; stroke-width: 1px;"/><path class="xtick ticks crisp" d="M0,630v-5" transform="translate(440.18,0)" style="stroke: rgb(68, 68, 68); stroke-opacity: 1; stroke-width: 1px;"/><path class="xtick ticks crisp" d="M0,630v-5" transform="translate(529.8199999999999,0)" style="stroke: rgb(68, 68, 68); stroke-opacity: 1; stroke-width: 1px;"/><path class="xtick ticks crisp" d="M0,630v-5" transform="translate(619.46,0)" style="stroke: rgb(68, 68, 68); stroke-opacity: 1; stroke-width: 1px;"/><path class="xtick ticks crisp" d="M0,630v-5" transform="translate(709.1,0)" style="stroke: rgb(68, 68, 68); stroke-opacity: 1; stroke-width: 1px;"/><path class="xtick ticks crisp" d="M0,630v-5" transform="translate(798.75,0)" style="stroke: rgb(68, 68, 68); stroke-opacity: 1; stroke-width: 1px;"/><path class="xtick ticks crisp" d="M0,630v-5" transform="translate(888.39,0)" style="stroke: rgb(68, 68, 68); stroke-opacity: 1; stroke-width: 1px;"/><g class="xtick"><text text-anchor="middle" x="0" y="654.8" transform="translate(171.25,0)" style="font-family: 'Open Sans', verdana, arial, sans-serif; font-size: 19px; fill: rgb(42, 63, 95); fill-opacity: 1; white-space: pre; opacity: 1;">5750</text></g><g class="xtick"><text text-anchor="middle" x="0" y="654.8" style="font-family: 'Open Sans', verdana, arial, sans-serif; font-size: 19px; fill: rgb(42, 63, 95); fill-opacity: 1; white-space: pre; opacity: 1;" transform="translate(260.89,0)">5800</text></g><g class="xtick"><text text-anchor="middle" x="0" y="654.8" style="font-family: 'Open Sans', verdana, arial, sans-serif; font-size: 19px; fill: rgb(42, 63, 95); fill-opacity: 1; white-space: pre; opacity: 1;" transform="translate(350.53999999999996,0)">5850</text></g><g class="xtick"><text text-anchor="middle" x="0" y="654.8" style="font-family: 'Open Sans', verdana, arial, sans-serif; font-size: 19px; fill: rgb(42, 63, 95); fill-opacity: 1; white-space: pre; opacity: 1;" transform="translate(440.18,0)">5900</text></g><g class="xtick"><text text-anchor="middle" x="0" y="654.8" style="font-family: 'Open Sans', verdana, arial, sans-serif; font-size: 19px; fill: rgb(42, 63, 95); fill-opacity: 1; white-space: pre; opacity: 1;" transform="translate(529.8199999999999,0)">5950</text></g><g class="xtick"><text text-anchor="middle" x="0" y="654.8" style="font-family: 'Open Sans', verdana, arial, sans-serif; font-size: 19px; fill: rgb(42, 63, 95); fill-opacity: 1; white-space: pre; opacity: 1;" transform="translate(619.46,0)">6000</text></g><g class="xtick"><text text-anchor="middle" x="0" y="654.8" style="font-family: 'Open Sans', verdana, arial, sans-serif; font-size: 19px; fill: rgb(42, 63, 95); fill-opacity: 1; white-space: pre; opacity: 1;" transform="translate(709.1,0)">6050</text></g><g class="xtick"><text text-anchor="middle" x="0" y="654.8" style="font-family: 'Open Sans', verdana, arial, sans-serif; font-size: 19px; fill: rgb(42, 63, 95); fill-opacity: 1; white-space: pre; opacity: 1;" transform="translate(798.75,0)">6100</text></g><g class="xtick"><text text-anchor="middle" x="0" y="654.8" style="font-family: 'Open Sans', verdana, arial, sans-serif; font-size: 19px; fill: rgb(42, 63, 95); fill-opacity: 1; white-space: pre; opacity: 1;" transform="translate(888.39,0)">6150</text></g></g><g class="yaxislayer-above"><path class="ytick ticks crisp" d="M101,0h2" transform="translate(0,625.56)" style="stroke: rgb(68, 68, 68); stroke-opacity: 1; stroke-width: 1px;"/><path class="ytick ticks crisp" d="M101,0h2" transform="translate(0,587.51)" style="stroke: rgb(68, 68, 68); stroke-opacity: 1; stroke-width: 1px;"/><path class="ytick ticks crisp" d="M101,0h2" transform="translate(0,568.48)" style="stroke: rgb(68, 68, 68); stroke-opacity: 1; stroke-width: 1px;"/><path class="ytick ticks crisp" d="M101,0h2" transform="translate(0,549.45)" style="stroke: rgb(68, 68, 68); stroke-opacity: 1; stroke-width: 1px;"/><path class="ytick ticks crisp" d="M101,0h2" transform="translate(0,511.4)" style="stroke: rgb(68, 68, 68); stroke-opacity: 1; stroke-width: 1px;"/><path class="ytick ticks crisp" d="M101,0h2" transform="translate(0,492.38)" style="stroke: rgb(68, 68, 68); stroke-opacity: 1; stroke-width: 1px;"/><path class="ytick ticks crisp" d="M101,0h2" transform="translate(0,473.35)" style="stroke: rgb(68, 68, 68); stroke-opacity: 1; stroke-width: 1px;"/><path class="ytick ticks crisp" d="M101,0h2" transform="translate(0,435.3)" style="stroke: rgb(68, 68, 68); stroke-opacity: 1; stroke-width: 1px;"/><path class="ytick ticks crisp" d="M101,0h2" transform="translate(0,416.27)" style="stroke: rgb(68, 68, 68); stroke-opacity: 1; stroke-width: 1px;"/><path class="ytick ticks crisp" d="M101,0h2" transform="translate(0,397.25)" style="stroke: rgb(68, 68, 68); stroke-opacity: 1; stroke-width: 1px;"/><path class="ytick ticks crisp" d="M101,0h2" transform="translate(0,359.19)" style="stroke: rgb(68, 68, 68); stroke-opacity: 1; stroke-width: 1px;"/><path class="ytick ticks crisp" d="M101,0h2" transform="translate(0,340.17)" style="stroke: rgb(68, 68, 68); stroke-opacity: 1; stroke-width: 1px;"/><path class="ytick ticks crisp" d="M101,0h2" transform="translate(0,321.14)" style="stroke: rgb(68, 68, 68); stroke-opacity: 1; stroke-width: 1px;"/><path class="ytick ticks crisp" d="M101,0h2" transform="translate(0,283.09000000000003)" style="stroke: rgb(68, 68, 68); stroke-opacity: 1; stroke-width: 1px;"/><path class="ytick ticks crisp" d="M101,0h2" transform="translate(0,264.06)" style="stroke: rgb(68, 68, 68); stroke-opacity: 1; stroke-width: 1px;"/><path class="ytick ticks crisp" d="M101,0h2" transform="translate(0,245.04)" style="stroke: rgb(68, 68, 68); stroke-opacity: 1; stroke-width: 1px;"/><path class="ytick ticks crisp" d="M101,0h2" transform="translate(0,206.98)" style="stroke: rgb(68, 68, 68); stroke-opacity: 1; stroke-width: 1px;"/><path class="ytick ticks crisp" d="M101,0h2" transform="translate(0,187.96)" style="stroke: rgb(68, 68, 68); stroke-opacity: 1; stroke-width: 1px;"/><path class="ytick ticks crisp" d="M101,0h2" transform="translate(0,168.93)" style="stroke: rgb(68, 68, 68); stroke-opacity: 1; stroke-width: 1px;"/><path class="ytick ticks crisp" d="M101,0h2" transform="translate(0,130.88)" style="stroke: rgb(68, 68, 68); stroke-opacity: 1; stroke-width: 1px;"/><path class="ytick ticks crisp" d="M101,0h2" transform="translate(0,111.85)" style="stroke: rgb(68, 68, 68); stroke-opacity: 1; stroke-width: 1px;"/><path class="ytick ticks crisp" d="M101,0h2" transform="translate(0,92.83)" style="stroke: rgb(68, 68, 68); stroke-opacity: 1; stroke-width: 1px;"/><path class="ytick ticks crisp" d="M101,0h2" transform="translate(0,54.78)" style="stroke: rgb(68, 68, 68); stroke-opacity: 1; stroke-width: 1px;"/><path class="ytick ticks crisp" d="M101,0h5" transform="translate(0,606.53)" style="stroke: rgb(68, 68, 68); stroke-opacity: 1; stroke-width: 1px;"/><path class="ytick ticks crisp" d="M101,0h5" transform="translate(0,530.4300000000001)" style="stroke: rgb(68, 68, 68); stroke-opacity: 1; stroke-width: 1px;"/><path class="ytick ticks crisp" d="M101,0h5" transform="translate(0,454.32)" style="stroke: rgb(68, 68, 68); stroke-opacity: 1; stroke-width: 1px;"/><path class="ytick ticks crisp" d="M101,0h5" transform="translate(0,378.22)" style="stroke: rgb(68, 68, 68); stroke-opacity: 1; stroke-width: 1px;"/><path class="ytick ticks crisp" d="M101,0h5" transform="translate(0,302.12)" style="stroke: rgb(68, 68, 68); stroke-opacity: 1; stroke-width: 1px;"/><path class="ytick ticks crisp" d="M101,0h5" transform="translate(0,226.01)" style="stroke: rgb(68, 68, 68); stroke-opacity: 1; stroke-width: 1px;"/><path class="ytick ticks crisp" d="M101,0h5" transform="translate(0,149.91)" style="stroke: rgb(68, 68, 68); stroke-opacity: 1; stroke-width: 1px;"/><path class="ytick ticks crisp" d="M101,0h5" transform="translate(0,73.8)" style="stroke: rgb(68, 68, 68); stroke-opacity: 1; stroke-width: 1px;"/><g class="ytick"><text text-anchor="end" x="95.2" y="6.6499999999999995" transform="translate(0,606.53)" style="font-family: 'Open Sans', verdana, arial, sans-serif; font-size: 19px; fill: rgb(42, 63, 95); fill-opacity: 1; white-space: pre; opacity: 1;">39.4k</text></g><g class="ytick"><text text-anchor="end" x="95.2" y="6.6499999999999995" style="font-family: 'Open Sans', verdana, arial, sans-serif; font-size: 19px; fill: rgb(42, 63, 95); fill-opacity: 1; white-space: pre; opacity: 1;" transform="translate(0,530.4300000000001)">39.6k</text></g><g class="ytick"><text text-anchor="end" x="95.2" y="6.6499999999999995" style="font-family: 'Open Sans', verdana, arial, sans-serif; font-size: 19px; fill: rgb(42, 63, 95); fill-opacity: 1; white-space: pre; opacity: 1;" transform="translate(0,454.32)">39.8k</text></g><g class="ytick"><text text-anchor="end" x="95.2" y="6.6499999999999995" style="font-family: 'Open Sans', verdana, arial, sans-serif; font-size: 19px; fill: rgb(42, 63, 95); fill-opacity: 1; white-space: pre; opacity: 1;" transform="translate(0,378.22)">40k</text></g><g class="ytick"><text text-anchor="end" x="95.2" y="6.6499999999999995" style="font-family: 'Open Sans', verdana, arial, sans-serif; font-size: 19px; fill: rgb(42, 63, 95); fill-opacity: 1; white-space: pre; opacity: 1;" transform="translate(0,302.12)">40.2k</text></g><g class="ytick"><text text-anchor="end" x="95.2" y="6.6499999999999995" style="font-family: 'Open Sans', verdana, arial, sans-serif; font-size: 19px; fill: rgb(42, 63, 95); fill-opacity: 1; white-space: pre; opacity: 1;" transform="translate(0,226.01)">40.4k</text></g><g class="ytick"><text text-anchor="end" x="95.2" y="6.6499999999999995" style="font-family: 'Open Sans', verdana, arial, sans-serif; font-size: 19px; fill: rgb(42, 63, 95); fill-opacity: 1; white-space: pre; opacity: 1;" transform="translate(0,149.91)">40.6k</text></g><g class="ytick"><text text-anchor="end" x="95.2" y="6.6499999999999995" style="font-family: 'Open Sans', verdana, arial, sans-serif; font-size: 19px; fill: rgb(42, 63, 95); fill-opacity: 1; white-space: pre; opacity: 1;" transform="translate(0,73.8)">40.8k</text></g></g><g class="overaxes-above"/></g></g><g class="polarlayer"/><g class="smithlayer"/><g class="ternarylayer"/><g class="geolayer"/><g class="funnelarealayer"/><g class="pielayer"/><g class="iciclelayer"/><g class="treemaplayer"/><g class="sunburstlayer"/><g class="glimages"/><defs id="topdefs-e2897a"><g class="clips"/></defs><g class="layer-above"><g class="imagelayer"/><g class="shapelayer"><path data-index="0" fill-rule="evenodd" d="M111.25,630L111.25,50" clip-path="url(#clipe2897ax)" style="opacity: 0.5; stroke: rgb(214, 39, 40); stroke-opacity: 1; fill: rgb(0, 0, 0); fill-opacity: 0; stroke-dasharray: 3px, 3px; stroke-width: 2px;"/><path data-index="1" fill-rule="evenodd" d="M101,594.75L950,594.75" clip-path="url(#clipe2897ay)" style="opacity: 0.5; stroke: rgb(214, 39, 40); stroke-opacity: 1; fill: rgb(0, 0, 0); fill-opacity: 0; stroke-dasharray: 3px, 3px; stroke-width: 2px;"/></g></g><g class="infolayer"><g class="g-gtitle"/><g class="g-xtitle"><text class="xtitle" x="525.5" y="689.9125" text-anchor="middle" style="font-family: 'Open Sans', verdana, arial, sans-serif; font-size: 23px; fill: rgb(42, 63, 95); opacity: 1; font-weight: normal; white-space: pre;">Network losses [kWh]</text></g><g class="g-ytitle" transform="translate(13.302734375,0)"><text class="ytitle" transform="rotate(-90,9.696875000000006,340)" x="9.696875000000006" y="340" text-anchor="middle" style="font-family: 'Open Sans', verdana, arial, sans-serif; font-size: 23px; fill: rgb(42, 63, 95); opacity: 1; font-weight: normal; white-space: pre;">Sum of individual cost [€]</text></g></g></svg>