<svg class="main-svg" xmlns="http://www.w3.org/2000/svg" xmlns:xlink="http://www.w3.org/1999/xlink" width="1000" height="700" style="" viewBox="0 0 1000 700"><rect x="0" y="0" width="1000" height="700" style="fill: rgb(255, 255, 255); fill-opacity: 1;"/><defs id="defs-492807"><g class="clips"><clipPath id="clip492807xyplot" class="plotclip"><rect width="849" height="580"/></clipPath><clipPath class="axesclip" id="clip492807x"><rect x="101" y="0" width="849" height="700"/></clipPath><clipPath class="axesclip" id="clip492807y"><rect x="0" y="50" width="1000" height="580"/></clipPath><clipPath class="axesclip" id="clip492807xy"><rect x="101" y="50" width="849" height="580"/></clipPath></g><g class="gradients"/><g class="patterns"/></defs><g class="bglayer"/><g class="layer-below"><g class="imagelayer"/><g class="shapelayer"/></g><g class="cartesianlayer"><g class="subplot xy"><g class="layer-subplot"><g class="shapelayer"/><g class="imagelayer"/></g><g class="minor-gridlayer"><g class="x"><path class="xgrid crisp" transform="translate(117.47,0)" d="M0,50v580" style="stroke: rgb(213, 213, 213); stroke-opacity: 0.74; stroke-width: 1px;"/><path class="xgrid crisp" transform="translate(135.39,0)" d="M0,50v580" style="stroke: rgb(213, 213, 213); stroke-opacity: 0.74; stroke-width: 1px;"/><path class="xgrid crisp" transform="translate(153.32,0)" d="M0,50v580" style="stroke: rgb(213, 213, 213); stroke-opacity: 0.74; stroke-width: 1px;"/><path class="xgrid crisp" transform="translate(189.18,0)" d="M0,50v580" style="stroke: rgb(213, 213, 213); stroke-opacity: 0.74; stroke-width: 1px;"/><path class="xgrid crisp" transform="translate(207.11,0)" d="M0,50v580" style="stroke: rgb(213, 213, 213); stroke-opacity: 0.74; stroke-width: 1px;"/><path class="xgrid crisp" transform="translate(225.04000000000002,0)" d="M0,50v580" style="stroke: rgb(213, 213, 213); stroke-opacity: 0.74; stroke-width: 1px;"/><path class="xgrid crisp" transform="translate(242.96,0)" d="M0,50v580" style="stroke: rgb(213, 213, 213); stroke-opacity: 0.74; stroke-width: 1px;"/><path class="xgrid crisp" transform="translate(278.82,0)" d="M0,50v580" style="stroke: rgb(213, 213, 213); stroke-opacity: 0.74; stroke-width: 1px;"/><path class="xgrid crisp" transform="translate(296.75,0)" d="M0,50v580" style="stroke: rgb(213, 213, 213); stroke-opacity: 0.74; stroke-width: 1px;"/><path class="xgrid crisp" transform="translate(314.68,0)" d="M0,50v580" style="stroke: rgb(213, 213, 213); stroke-opacity: 0.74; stroke-width: 1px;"/><path class="xgrid crisp" transform="translate(332.61,0)" d="M0,50v580" style="stroke: rgb(213, 213, 213); stroke-opacity: 0.74; stroke-width: 1px;"/><path class="xgrid crisp" transform="translate(368.46,0)" d="M0,50v580" style="stroke: rgb(213, 213, 213); stroke-opacity: 0.74; stroke-width: 1px;"/><path class="xgrid crisp" transform="translate(386.39,0)" d="M0,50v580" style="stroke: rgb(213, 213, 213); stroke-opacity: 0.74; stroke-width: 1px;"/><path class="xgrid crisp" transform="translate(404.32,0)" d="M0,50v580" style="stroke: rgb(213, 213, 213); stroke-opacity: 0.74; stroke-width: 1px;"/><path class="xgrid crisp" transform="translate(422.25,0)" d="M0,50v580" style="stroke: rgb(213, 213, 213); stroke-opacity: 0.74; stroke-width: 1px;"/><path class="xgrid crisp" transform="translate(458.11,0)" d="M0,50v580" style="stroke: rgb(213, 213, 213); stroke-opacity: 0.74; stroke-width: 1px;"/><path class="xgrid crisp" transform="translate(476.03,0)" d="M0,50v580" style="stroke: rgb(213, 213, 213); stroke-opacity: 0.74; stroke-width: 1px;"/><path class="xgrid crisp" transform="translate(493.96,0)" d="M0,50v580" style="stroke: rgb(213, 213, 213); stroke-opacity: 0.74; stroke-width: 1px;"/><path class="xgrid crisp" transform="translate(511.89,0)" d="M0,50v580" style="stroke: rgb(213, 213, 213); stroke-opacity: 0.74; stroke-width: 1px;"/><path class="xgrid crisp" transform="translate(547.75,0)" d="M0,50v580" style="stroke: rgb(213, 213, 213); stroke-opacity: 0.74; stroke-width: 1px;"/><path class="xgrid crisp" transform="translate(565.6800000000001,0)" d="M0,50v580" style="stroke: rgb(213, 213, 213); stroke-opacity: 0.74; stroke-width: 1px;"/><path class="xgrid crisp" transform="translate(583.6,0)" d="M0,50v580" style="stroke: rgb(213, 213, 213); stroke-opacity: 0.74; stroke-width: 1px;"/><path class="xgrid crisp" transform="translate(601.53,0)" d="M0,50v580" style="stroke: rgb(213, 213, 213); stroke-opacity: 0.74; stroke-width: 1px;"/><path class="xgrid crisp" transform="translate(637.39,0)" d="M0,50v580" style="stroke: rgb(213, 213, 213); stroke-opacity: 0.74; stroke-width: 1px;"/><path class="xgrid crisp" transform="translate(655.32,0)" d="M0,50v580" style="stroke: rgb(213, 213, 213); stroke-opacity: 0.74; stroke-width: 1px;"/><path class="xgrid crisp" transform="translate(673.25,0)" d="M0,50v580" style="stroke: rgb(213, 213, 213); stroke-opacity: 0.74; stroke-width: 1px;"/><path class="xgrid crisp" transform="translate(691.18,0)" d="M0,50v580" style="stroke: rgb(213, 213, 213); stroke-opacity: 0.74; stroke-width: 1px;"/><path class="xgrid crisp" transform="translate(727.03,0)" d="M0,50v580" style="stroke: rgb(213, 213, 213); stroke-opacity: 0.74; stroke-width: 1px;"/><path class="xgrid crisp" transform="translate(744.96,0)" d="M0,50v580" style="stroke: rgb(213, 213, 213); stroke-opacity: 0.74; stroke-width: 1px;"/><path class="xgrid crisp" transform="translate(762.89,0)" d="M0,50v580" style="stroke: rgb(213, 213, 213); stroke-opacity: 0.74; stroke-width: 1px;"/><path class="xgrid crisp" transform="translate(780.82,0)" d="M0,50v580" style="stroke: rgb(213, 213, 213); stroke-opacity: 0.74; stroke-width: 1px;"/><path class="xgrid crisp" transform="translate(816.67,0)" d="M0,50v580" style="stroke: rgb(213, 213, 213); stroke-opacity: 0.74; stroke-width: 1px;"/><path class="xgrid crisp" transform="translate(834.6,0)" d="M0,50v580" style="stroke: rgb(213, 213, 213); stroke-opacity: 0.74; stroke-width: 1px;"/><path class="xgrid crisp" transform="translate(852.53,0)" d="M0,50v580" style="stroke: rgb(213, 213, 213); stroke-opacity: 0.74; stroke-width: 1px;"/><path class="xgrid crisp" transform="translate(870.46,0)" d="M0,50v580" style="stroke: rgb(213, 213, 213); stroke-opacity: 0.74; stroke-width: 1px;"/><path class="xgrid crisp" transform="translate(906.32,0)" d="M0,50v580" style="stroke: rgb(213, 213, 213); stroke-opacity: 0.74; stroke-width: 1px;"/><path class="xgrid crisp" transform="translate(924.25,0)" d="M0,50v580" style="stroke: rgb(213, 213, 213); stroke-opacity: 0.74; stroke-width: 1px;"/><path class="xgrid crisp" transform="translate(942.17,0)" d="M0,50v580" style="stroke: rgb(213, 213, 213); stroke-opacity: 0.74; stroke-width: 1px;"/></g><g class="y"/></g><g class="gridlayer"><g class="x"><path class="xgrid crisp" transform="translate(171.25,0)" d="M0,50v580" style="stroke: rgb(127, 127, 127); stroke-opacity: 0.2; stroke-width: 1px;"/><path class="xgrid crisp" transform="translate(260.89,0)" d="M0,50v580" style="stroke: rgb(127, 127, 127); stroke-opacity: 0.2; stroke-width: 1px;"/><path class="xgrid crisp" transform="translate(350.53999999999996,0)" d="M0,50v580" style="stroke: rgb(127, 127, 127); stroke-opacity: 0.2; stroke-width: 1px;"/><path class="xgrid crisp" transform="translate(440.18,0)" d="M0,50v580" style="stroke: rgb(127, 127, 127); stroke-opacity: 0.2; stroke-width: 1px;"/><path class="xgrid crisp" transform="translate(529.8199999999999,0)" d="M0,50v580" style="stroke: rgb(127, 127, 127); stroke-opacity: 0.2; stroke-width: 1px;"/><path class="xgrid crisp" transform="translate(619.46,0)" d="M0,50v580" style="stroke: rgb(127, 127, 127); stroke-opacity: 0.2; stroke-width: 1px;"/><path class="xgrid crisp" transform="translate(709.1,0)" d="M0,50v580" style="stroke: rgb(127, 127, 127); stroke-opacity: 0.2; stroke-width: 1px;"/><path class="xgrid crisp" transform="translate(798.75,0)" d="M0,50v580" style="stroke: rgb(127, 127, 127); stroke-opacity: 0.2; stroke-width: 1px;"/><path class="xgrid crisp" transform="translate(888.39,0)" d="M0,50v580" style="stroke: rgb(127, 127, 127); stroke-opacity: 0.2; stroke-width: 1px;"/></g><g class="y"><path class="ygrid crisp" transform="translate(0,619.48)" d="M101,0h849" style="stroke: rgb(127, 127, 127); stroke-opacity: 0.2; stroke-width: 1px;"/><path class="ygrid crisp" transform="translate(0,565.24)" d="M101,0h849" style="stroke: rgb(127, 127, 127); stroke-opacity: 0.2; stroke-width: 1px;"/><path class="ygrid crisp" transform="translate(0,511)" d="M101,0h849" style="stroke: rgb(127, 127, 127); stroke-opacity: 0.2; stroke-width: 1px;"/><path class="ygrid crisp" transform="translate(0,456.76)" d="M101,0h849" style="stroke: rgb(127, 127, 127); stroke-opacity: 0.2; stroke-width: 1px;"/><path class="ygrid crisp" transform="translate(0,402.53)" d="M101,0h849" style="stroke: rgb(127, 127, 127); stroke-opacity: 0.2; stroke-width: 1px;"/><path class="ygrid crisp" transform="translate(0,348.29)" d="M101,0h849" style="stroke: rgb(127, 127, 127); stroke-opacity: 0.2; stroke-width: 1px;"/><path class="ygrid crisp" transform="translate(0,294.05)" d="M101,0h849" style="stroke: rgb(127, 127, 127); stroke-opacity: 0.2; stroke-width: 1px;"/><path class="ygrid crisp" transform="translate(0,239.81)" d="M101,0h849" style="stroke: rgb(127, 127, 127); stroke-opacity: 0.2; stroke-width: 1px;"/><path class="ygrid crisp" transform="translate(0,185.57)" d="M101,0h849" style="stroke: rgb(127, 127, 127); stroke-opacity: 0.2; stroke-width: 1px;"/><path class="ygrid crisp" transform="translate(0,131.32999999999998)" d="M101,0h849" style="stroke: rgb(127, 127, 127); stroke-opacity: 0.2; stroke-width: 1px;"/><path class="ygrid crisp" transform="translate(0,77.09)" d="M101,0h849" style="stroke: rgb(127, 127, 127); stroke-opacity: 0.2; stroke-width: 1px;"/></g></g><g class="zerolinelayer"/><path class="xlines-below"/><path class="ylines-below"/><g class="overlines-below"/><g class="xaxislayer-below"/><g class="yaxislayer-below"/><g class="overaxes-below"/><g class="plot" transform="translate(101,50)" clip-path="url(#clip492807xyplot)"><g class="scatterlayer mlayer"><g class="trace scatter tracefd8350" style="stroke-miterlimit: 2; opacity: 1;"><g class="fills"/><g class="errorbars"/><g class="lines"><path class="js-line" d="M655.96,544.75L219.61,543.7L160.43,537.06L124.14,530.42L78.13,517.15L26.05,483.96L11.54,450.77L10.25,418.65" style="vector-effect: non-scaling-stroke; fill: none; stroke: rgb(44, 160, 44); stroke-opacity: 1; stroke-width: 3px; opacity: 1;"/></g><g class="points"><path class="point" transform="translate(655.96,544.75)" d="M5,0A5,5 0 1,1 0,-5A5,5 0 0,1 5,0Z" style="opacity: 1; stroke-width: 0px; fill: rgb(44, 160, 44); fill-opacity: 1;"/><path class="point" transform="translate(219.61,543.7)" d="M5,0A5,5 0 1,1 0,-5A5,5 0 0,1 5,0Z" style="opacity: 1; stroke-width: 0px; fill: rgb(44, 160, 44); fill-opacity: 1;"/><path class="point" transform="translate(160.43,537.06)" d="M5,0A5,5 0 1,1 0,-5A5,5 0 0,1 5,0Z" style="opacity: 1; stroke-width: 0px; fill: rgb(44, 160, 44); fill-opacity: 1;"/><path class="point" transform="translate(124.14,530.42)" d="M5,0A5,5 0 1,1 0,-5A5,5 0 0,1 5,0Z" style="opacity: 1; stroke-width: 0px; fill: rgb(44, 160, 44); fill-opacity: 1;"/><path class="point" transform="translate(78.13,517.15)" d="M5,0A5,5 0 1,1 0,-5A5,5 0 0,1 5,0Z" style="opacity: 1; stroke-width: 0px; fill: rgb(44, 160, 44); fill-opacity: 1;"/><path class="point" transform="translate(26.05,483.96)" d="M5,0A5,5 0 1,1 0,-5A5,5 0 0,1 5,0Z" style="opacity: 1; stroke-width: 0px; fill: rgb(44, 160, 44); fill-opacity: 1;"/><path class="point" transform="translate(11.54,450.77)" d="M5,0A5,5 0 1,1 0,-5A5,5 0 0,1 5,0Z" style="opacity: 1; stroke-width: 0px; fill: rgb(44, 160, 44); fill-opacity: 1;"/><path class="point" transform="translate(10.25,418.65)" d="M5,0A5,5 0 1,1 0,-5A5,5 0 0,1 5,0Z" style="opacity: 1; stroke-width: 0px; fill: rgb(44, 160, 44); fill-opacity: 1;"/></g><g class="text"/></g><g class="trace scatter trace58975e" style="stroke-miterlimit: 2; opacity: 1;"><g class="fills"/><g class="errorbars"/><g class="lines"><path class="js-line" d="M837.92,398.37L230.83,397.3L138.13,378.18L93.25,359.07L47.6,320.84L14.88,225.28L10.35,129.71L10.25,35.25" style="vector-effect: non-scaling-stroke; fill: none; stroke: rgb(55, 128, 191); stroke-opacity: 1; stroke-width: 3px; opacity: 1;"/></g><g class="points"><path class="point" transform="translate(837.92,398.37)" d="M5,0A5,5 0 1,1 0,-5A5,5 0 0,1 5,0Z" style="opacity: 1; stroke-width: 0px; fill: rgb(55, 128, 191); fill-opacity: 1;"/><path class="point" transform="translate(230.83,397.3)" d="M5,0A5,5 0 1,1 0,-5A5,5 0 0,1 5,0Z" style="opacity: 1; stroke-width: 0px; fill: rgb(55, 128, 191); fill-opacity: 1;"/><path class="point" transform="translate(138.13,378.18)" d="M5,0A5,5 0 1,1 0,-5A5,5 0 0,1 5,0Z" style="opacity: 1; stroke-width: 0px; fill: rgb(55, 128, 191); fill-opacity: 1;"/><path class="point" transform="translate(93.25,359.07)" d="M5,0A5,5 0 1,1 0,-5A5,5 0 0,1 5,0Z" style="opacity: 1; stroke-width: 0px; fill: rgb(55, 128, 191); fill-opacity: 1;"/><path class="point" transform="translate(47.6,320.84)" d="M5,0A5,5 0 1,1 0,-5A5,5 0 0,1 5,0Z" style="opacity: 1; stroke-width: 0px; fill: rgb(55, 128, 191); fill-opacity: 1;"/><path class="point" transform="translate(14.88,225.28)" d="M5,0A5,5 0 1,1 0,-5A5,5 0 0,1 5,0Z" style="opacity: 1; stroke-width: 0px; fill: rgb(55, 128, 191); fill-opacity: 1;"/><path class="point" transform="translate(10.35,129.71)" d="M5,0A5,5 0 1,1 0,-5A5,5 0 0,1 5,0Z" style="opacity: 1; stroke-width: 0px; fill: rgb(55, 128, 191); fill-opacity: 1;"/><path class="point" transform="translate(10.25,35.25)" d="M5,0A5,5 0 1,1 0,-5A5,5 0 0,1 5,0Z" style="opacity: 1; stroke-width: 0px; fill: rgb(55, 128, 191); fill-opacity: 1;"/></g><g class="text"/></g></g></g><g class="overplot"/><path class="xlines-above crisp" d="M99,631H950" style="fill: none; stroke-width: 2px; stroke: rgb(0, 0, 0); stroke-opacity: 1;"/><path class="ylines-above crisp" d="M100,50V630" style="fill: none; stroke-width: 2px; stroke: rgb(0, 0, 0); stroke-opacity: 1;"/><g class="overlines-above"/><g class="xaxislayer-above"><path class="xtick ticks crisp" d="M0,630v-2" transform="translate(117.47,0)" style="stroke: rgb(0, 0, 0); stroke-opacity: 1; stroke-width: 1px;"/><path class="xtick ticks crisp" d="M0,630v-2" transform="translate(135.39,0)" style="stroke: rgb(0, 0, 0); stroke-opacity: 1; stroke-width: 1px;"/><path class="xtick ticks crisp" d="M0,630v-2" transform="translate(153.32,0)" style="stroke: rgb(0, 0, 0); stroke-opacity: 1; stroke-width: 1px;"/><path class="xtick ticks crisp" d="M0,630v-2" transform="translate(189.18,0)" style="stroke: rgb(0, 0, 0); stroke-opacity: 1; stroke-width: 1px;"/><path class="xtick ticks crisp" d="M0,630v-2" transform="translate(207.11,0)" style="stroke: rgb(0, 0, 0); stroke-opacity: 1; stroke-width: 1px;"/><path class="xtick ticks crisp" d="M0,630v-2" transform="translate(225.04000000000002,0)" style="stroke: rgb(0, 0, 0); stroke-opacity: 1; stroke-width: 1px;"/><path class="xtick ticks crisp" d="M0,630v-2" transform="translate(242.96,0)" style="stroke: rgb(0, 0, 0); stroke-opacity: 1; stroke-width: 1px;"/><path class="xtick ticks crisp" d="M0,630v-2" transform="translate(278.82,0)" style="stroke: rgb(0, 0, 0); stroke-opacity: 1; stroke-width: 1px;"/><path class="xtick ticks crisp" d="M0,630v-2" transform="translate(296.75,0)" style="stroke: rgb(0, 0, 0); stroke-opacity: 1; stroke-width: 1px;"/><path class="xtick ticks crisp" d="M0,630v-2" transform="translate(314.68,0)" style="stroke: rgb(0, 0, 0); stroke-opacity: 1; stroke-width: 1px;"/><path class="xtick ticks crisp" d="M0,630v-2" transform="translate(332.61,0)" style="stroke: rgb(0, 0, 0); stroke-opacity: 1; stroke-width: 1px;"/><path class="xtick ticks crisp" d="M0,630v-2" transform="translate(368.46,0)" style="stroke: rgb(0, 0, 0); stroke-opacity: 1; stroke-width: 1px;"/><path class="xtick ticks crisp" d="M0,630v-2" transform="translate(386.39,0)" style="stroke: rgb(0, 0, 0); stroke-opacity: 1; stroke-width: 1px;"/><path class="xtick ticks crisp" d="M0,630v-2" transform="translate(404.32,0)" style="stroke: rgb(0, 0, 0); stroke-opacity: 1; stroke-width: 1px;"/><path class="xtick ticks crisp" d="M0,630v-2" transform="translate(422.25,0)" style="stroke: rgb(0, 0, 0); stroke-opacity: 1; stroke-width: 1px;"/><path class="xtick ticks crisp" d="M0,630v-2" transform="translate(458.11,0)" style="stroke: rgb(0, 0, 0); stroke-opacity: 1; stroke-width: 1px;"/><path class="xtick ticks crisp" d="M0,630v-2" transform="translate(476.03,0)" style="stroke: rgb(0, 0, 0); stroke-opacity: 1; stroke-width: 1px;"/><path class="xtick ticks crisp" d="M0,630v-2" transform="translate(493.96,0)" style="stroke: rgb(0, 0, 0); stroke-opacity: 1; stroke-width: 1px;"/><path class="xtick ticks crisp" d="M0,630v-2" transform="translate(511.89,0)" style="stroke: rgb(0, 0, 0); stroke-opacity: 1; stroke-width: 1px;"/><path class="xtick ticks crisp" d="M0,630v-2" transform="translate(547.75,0)" style="stroke: rgb(0, 0, 0); stroke-opacity: 1; stroke-width: 1px;"/><path class="xtick ticks crisp" d="M0,630v-2" transform="translate(565.6800000000001,0)" style="stroke: rgb(0, 0, 0); stroke-opacity: 1; stroke-width: 1px;"/><path class="xtick ticks crisp" d="M0,630v-2" transform="translate(583.6,0)" style="stroke: rgb(0, 0, 0); stroke-opacity: 1; stroke-width: 1px;"/><path class="xtick ticks crisp" d="M0,630v-2" transform="translate(601.53,0)" style="stroke: rgb(0, 0, 0); stroke-opacity: 1; stroke-width: 1px;"/><path class="xtick ticks crisp" d="M0,630v-2" transform="translate(637.39,0)" style="stroke: rgb(0, 0, 0); stroke-opacity: 1; stroke-width: 1px;"/><path class="xtick ticks crisp" d="M0,630v-2" transform="translate(655.32,0)" style="stroke: rgb(0, 0, 0); stroke-opacity: 1; stroke-width: 1px;"/><path class="xtick ticks crisp" d="M0,630v-2" transform="translate(673.25,0)" style="stroke: rgb(0, 0, 0); stroke-opacity: 1; stroke-width: 1px;"/><path class="xtick ticks crisp" d="M0,630v-2" transform="translate(691.18,0)" style="stroke: rgb(0, 0, 0); stroke-opacity: 1; stroke-width: 1px;"/><path class="xtick ticks crisp" d="M0,630v-2" transform="translate(727.03,0)" style="stroke: rgb(0, 0, 0); stroke-opacity: 1; stroke-width: 1px;"/><path class="xtick ticks crisp" d="M0,630v-2" transform="translate(744.96,0)" style="stroke: rgb(0, 0, 0); stroke-opacity: 1; stroke-width: 1px;"/><path class="xtick ticks crisp" d="M0,630v-2" transform="translate(762.89,0)" style="stroke: rgb(0, 0, 0); stroke-opacity: 1; stroke-width: 1px;"/><path class="xtick ticks crisp" d="M0,630v-2" transform="translate(780.82,0)" style="stroke: rgb(0, 0, 0); stroke-opacity: 1; stroke-width: 1px;"/><path class="xtick ticks crisp" d="M0,630v-2" transform="translate(816.67,0)" style="stroke: rgb(0, 0, 0); stroke-opacity: 1; stroke-width: 1px;"/><path class="xtick ticks crisp" d="M0,630v-2" transform="translate(834.6,0)" style="stroke: rgb(0, 0, 0); stroke-opacity: 1; stroke-width: 1px;"/><path class="xtick ticks crisp" d="M0,630v-2" transform="translate(852.53,0)" style="stroke: rgb(0, 0, 0); stroke-opacity: 1; stroke-width: 1px;"/><path class="xtick ticks crisp" d="M0,630v-2" transform="translate(870.46,0)" style="stroke: rgb(0, 0, 0); stroke-opacity: 1; stroke-width: 1px;"/><path class="xtick ticks crisp" d="M0,630v-2" transform="translate(906.32,0)" style="stroke: rgb(0, 0, 0); stroke-opacity: 1; stroke-width: 1px;"/><path class="xtick ticks crisp" d="M0,630v-2" transform="translate(924.25,0)" style="stroke: rgb(0, 0, 0); stroke-opacity: 1; stroke-width: 1px;"/><path class="xtick ticks crisp" d="M0,630v-2" transform="translate(942.17,0)" style="stroke: rgb(0, 0, 0); stroke-opacity: 1; stroke-width: 1px;"/><path class="xtick ticks crisp" d="M0,630v-5" transform="translate(171.25,0)" style="stroke: rgb(68, 68, 68); stroke-opacity: 1; stroke-width: 1px;"/><path class="xtick ticks crisp" d="M0,630v-5" transform="translate(260.89,0)" style="stroke: rgb(68, 68, 68); stroke-opacity: 1; stroke-width: 1px;"/><path class="xtick ticks crisp" d="M0,630v-5" transform="translate(350.53999999999996,0)" style="stroke: rgb(68, 68, 68); stroke-opacity: 1; stroke-width: 1px;"/><path class="xtick ticks crisp" d="M0,630v-5" transform="translate(440.18,0)" style="stroke: rgb(68, 68, 68); stroke-opacity: 1; stroke-width: 1px;"/><path class="xtick ticks crisp" d="M0,630v-5" transform="translate(529.8199999999999,0)" style="stroke: rgb(68, 68, 68); stroke-opacity: 1; stroke-width: 1px;"/><path class="xtick ticks crisp" d="M0,630v-5" transform="translate(619.46,0)" style="stroke: rgb(68, 68, 68); stroke-opacity: 1; stroke-width: 1px;"/><path class="xtick ticks crisp" d="M0,630v-5" transform="translate(709.1,0)" style="stroke: rgb(68, 68, 68); stroke-opacity: 1; stroke-width: 1px;"/><path class="xtick ticks crisp" d="M0,630v-5" transform="translate(798.75,0)" style="stroke: rgb(68, 68, 68); stroke-opacity: 1; stroke-width: 1px;"/><path class="xtick ticks crisp" d="M0,630v-5" transform="translate(888.39,0)" style="stroke: rgb(68, 68, 68); stroke-opacity: 1; stroke-width: 1px;"/><g class="xtick"><text text-anchor="middle" x="0" y="654.8" transform="translate(171.25,0)" style="font-family: 'Open Sans', verdana, arial, sans-serif; font-size: 19px; fill: rgb(42, 63, 95); fill-opacity: 1; white-space: pre; opacity: 1;">5750</text></g><g class="xtick"><text text-anchor="middle" x="0" y="654.8" style="font-family: 'Open Sans', verdana, arial, sans-serif; font-size: 19px; fill: rgb(42, 63, 95); fill-opacity: 1; white-space: pre; opacity: 1;" transform="translate(260.89,0)">5800</text></g><g class="xtick"><text text-anchor="middle" x="0" y="654.8" style="font-family: 'Open Sans', verdana, arial, sans-serif; font-size: 19px; fill: rgb(42, 63, 95); fill-opacity: 1; white-space: pre; opacity: 1;" transform="translate(350.53999999999996,0)">5850</text></g><g class="xtick"><text text-anchor="middle" x="0" y="654.8" style="font-family: 'Open Sans', verdana, arial, sans-serif; font-size: 19px; fill: rgb(42, 63, 95); fill-opacity: 1; white-space: pre; opacity: 1;" transform="translate(440.18,0)">5900</text></g><g class="xtick"><text text-anchor="middle" x="0" y="654.8" style="font-family: 'Open Sans', verdana, arial, sans-serif; font-size: 19px; fill: rgb(42, 63, 95); fill-opacity: 1; white-space: pre; opacity: 1;" transform="translate(529.8199999999999,0)">5950</text></g><g class="xtick"><text text-anchor="middle" x="0" y="654.8" style="font-family: 'Open Sans', verdana, arial, sans-serif; font-size: 19px; fill: rgb(42, 63, 95); fill-opacity: 1; white-space: pre; opacity: 1;" transform="translate(619.46,0)">6000</text></g><g class="xtick"><text text-anchor="middle" x="0" y="654.8" style="font-family: 'Open Sans', verdana, arial, sans-serif; font-size: 19px; fill: rgb(42, 63, 95); fill-opacity: 1; white-space: pre; opacity: 1;" transform="translate(709.1,0)">6050</text></g><g class="xtick"><text text-anchor="middle" x="0" y="654.8" style="font-family: 'Open Sans', verdana, arial, sans-serif; font-size: 19px; fill: rgb(42, 63, 95); fill-opacity: 1; white-space: pre; opacity: 1;" transform="translate(798.75,0)">6100</text></g><g class="xtick"><text text-anchor="middle" x="0" y="654.8" style="font-family: 'Open Sans', verdana, arial, sans-serif; font-size: 19px; fill: rgb(42, 63, 95); fill-opacity: 1; white-space: pre; opacity: 1;" transform="translate(888.39,0)">6150</text></g></g><g class="yaxislayer-above"><path class="ytick ticks crisp" d="M101,0h2" transform="translate(0,605.92)" style="stroke: rgb(68, 68, 68); stroke-opacity: 1; stroke-width: 1px;"/><path class="ytick ticks crisp" d="M101,0h2" transform="translate(0,592.36)" style="stroke: rgb(68, 68, 68); stroke-opacity: 1; stroke-width: 1px;"/><path class="ytick ticks crisp" d="M101,0h2" transform="translate(0,578.8)" style="stroke: rgb(68, 68, 68); stroke-opacity: 1; stroke-width: 1px;"/><path class="ytick ticks crisp" d="M101,0h2" transform="translate(0,551.6800000000001)" style="stroke: rgb(68, 68, 68); stroke-opacity: 1; stroke-width: 1px;"/><path class="ytick ticks crisp" d="M101,0h2" transform="translate(0,538.12)" style="stroke: rgb(68, 68, 68); stroke-opacity: 1; stroke-width: 1px;"/><path class="ytick ticks crisp" d="M101,0h2" transform="translate(0,524.56)" style="stroke: rgb(68, 68, 68); stroke-opacity: 1; stroke-width: 1px;"/><path class="ytick ticks crisp" d="M101,0h2" transform="translate(0,497.44)" style="stroke: rgb(68, 68, 68); stroke-opacity: 1; stroke-width: 1px;"/><path class="ytick ticks crisp" d="M101,0h2" transform="translate(0,483.88)" style="stroke: rgb(68, 68, 68); stroke-opacity: 1; stroke-width: 1px;"/><path class="ytick ticks crisp" d="M101,0h2" transform="translate(0,470.32)" style="stroke: rgb(68, 68, 68); stroke-opacity: 1; stroke-width: 1px;"/><path class="ytick ticks crisp" d="M101,0h2" transform="translate(0,443.2)" style="stroke: rgb(68, 68, 68); stroke-opacity: 1; stroke-width: 1px;"/><path class="ytick ticks crisp" d="M101,0h2" transform="translate(0,429.64)" style="stroke: rgb(68, 68, 68); stroke-opacity: 1; stroke-width: 1px;"/><path class="ytick ticks crisp" d="M101,0h2" transform="translate(0,416.08)" style="stroke: rgb(68, 68, 68); stroke-opacity: 1; stroke-width: 1px;"/><path class="ytick ticks crisp" d="M101,0h2" transform="translate(0,388.97)" style="stroke: rgb(68, 68, 68); stroke-opacity: 1; stroke-width: 1px;"/><path class="ytick ticks crisp" d="M101,0h2" transform="translate(0,375.41)" style="stroke: rgb(68, 68, 68); stroke-opacity: 1; stroke-width: 1px;"/><path class="ytick ticks crisp" d="M101,0h2" transform="translate(0,361.85)" style="stroke: rgb(68, 68, 68); stroke-opacity: 1; stroke-width: 1px;"/><path class="ytick ticks crisp" d="M101,0h2" transform="translate(0,334.73)" style="stroke: rgb(68, 68, 68); stroke-opacity: 1; stroke-width: 1px;"/><path class="ytick ticks crisp" d="M101,0h2" transform="translate(0,321.17)" style="stroke: rgb(68, 68, 68); stroke-opacity: 1; stroke-width: 1px;"/><path class="ytick ticks crisp" d="M101,0h2" transform="translate(0,307.61)" style="stroke: rgb(68, 68, 68); stroke-opacity: 1; stroke-width: 1px;"/><path class="ytick ticks crisp" d="M101,0h2" transform="translate(0,280.49)" style="stroke: rgb(68, 68, 68); stroke-opacity: 1; stroke-width: 1px;"/><path class="ytick ticks crisp" d="M101,0h2" transform="translate(0,266.93)" style="stroke: rgb(68, 68, 68); stroke-opacity: 1; stroke-width: 1px;"/><path class="ytick ticks crisp" d="M101,0h2" transform="translate(0,253.37)" style="stroke: rgb(68, 68, 68); stroke-opacity: 1; stroke-width: 1px;"/><path class="ytick ticks crisp" d="M101,0h2" transform="translate(0,226.25)" style="stroke: rgb(68, 68, 68); stroke-opacity: 1; stroke-width: 1px;"/><path class="ytick ticks crisp" d="M101,0h2" transform="translate(0,212.69)" style="stroke: rgb(68, 68, 68); stroke-opacity: 1; stroke-width: 1px;"/><path class="ytick ticks crisp" d="M101,0h2" transform="translate(0,199.13)" style="stroke: rgb(68, 68, 68); stroke-opacity: 1; stroke-width: 1px;"/><path class="ytick ticks crisp" d="M101,0h2" transform="translate(0,172.01)" style="stroke: rgb(68, 68, 68); stroke-opacity: 1; stroke-width: 1px;"/><path class="ytick ticks crisp" d="M101,0h2" transform="translate(0,158.45)" style="stroke: rgb(68, 68, 68); stroke-opacity: 1; stroke-width: 1px;"/><path class="ytick ticks crisp" d="M101,0h2" transform="translate(0,144.89)" style="stroke: rgb(68, 68, 68); stroke-opacity: 1; stroke-width: 1px;"/><path class="ytick ticks crisp" d="M101,0h2" transform="translate(0,117.77)" style="stroke: rgb(68, 68, 68); stroke-opacity: 1; stroke-width: 1px;"/><path class="ytick ticks crisp" d="M101,0h2" transform="translate(0,104.21000000000001)" style="stroke: rgb(68, 68, 68); stroke-opacity: 1; stroke-width: 1px;"/><path class="ytick ticks crisp" d="M101,0h2" transform="translate(0,90.65)" style="stroke: rgb(68, 68, 68); stroke-opacity: 1; stroke-width: 1px;"/><path class="ytick ticks crisp" d="M101,0h2" transform="translate(0,63.53)" style="stroke: rgb(68, 68, 68); stroke-opacity: 1; stroke-width: 1px;"/><path class="ytick ticks crisp" d="M101,0h5" transform="translate(0,619.48)" style="stroke: rgb(68, 68, 68); stroke-opacity: 1; stroke-width: 1px;"/><path class="ytick ticks crisp" d="M101,0h5" transform="translate(0,565.24)" style="stroke: rgb(68, 68, 68); stroke-opacity: 1; stroke-width: 1px;"/><path class="ytick ticks crisp" d="M101,0h5" transform="translate(0,511)" style="stroke: rgb(68, 68, 68); stroke-opacity: 1; stroke-width: 1px;"/><path class="ytick ticks crisp" d="M101,0h5" transform="translate(0,456.76)" style="stroke: rgb(68, 68, 68); stroke-opacity: 1; stroke-width: 1px;"/><path class="ytick ticks crisp" d="M101,0h5" transform="translate(0,402.53)" style="stroke: rgb(68, 68, 68); stroke-opacity: 1; stroke-width: 1px;"/><path class="ytick ticks crisp" d="M101,0h5" transform="translate(0,348.29)" style="stroke: rgb(68, 68, 68); stroke-opacity: 1; stroke-width: 1px;"/><path class="ytick ticks crisp" d="M101,0h5" transform="translate(0,294.05)" style="stroke: rgb(68, 68, 68); stroke-opacity: 1; stroke-width: 1px;"/><path class="ytick ticks crisp" d="M101,0h5" transform="translate(0,239.81)" style="stroke: rgb(68, 68, 68); stroke-opacity: 1; stroke-width: 1px;"/><path class="ytick ticks crisp" d="M101,0h5" transform="translate(0,185.57)" style="stroke: rgb(68, 68, 68); stroke-opacity: 1; stroke-width: 1px;"/><path class="ytick ticks crisp" d="M101,0h5" transform="translate(0,131.32999999999998)" style="stroke: rgb(68, 68, 68); stroke-opacity: 1; stroke-width: 1px;"/><path class="ytick ticks crisp" d="M101,0h5" transform="translate(0,77.09)" style="stroke: rgb(68, 68, 68); stroke-opacity: 1; stroke-width: 1px;"/><g class="ytick"><text text-anchor="end" x="95.2" y="6.6499999999999995" transform="translate(0,619.48)" style="font-family: 'Open Sans', verdana, arial, sans-serif; font-size: 19px; fill: rgb(42, 63, 95); fill-opacity: 1; white-space: pre; opacity: 1;">38.8k</text></g><g class="ytick"><text text-anchor="end" x="95.2" y="6.6499999999999995" style="font-family: 'Open Sans', verdana, arial, sans-serif; font-size: 19px; fill: rgb(42, 63, 95); fill-opacity: 1; white-space: pre; opacity: 1;" transform="translate(0,565.24)">39k</text></g><g class="ytick"><text text-anchor="end" x="95.2" y="6.6499999999999995" style="font-family: 'Open Sans', verdana, arial, sans-serif; font-size: 19px; fill: rgb(42, 63, 95); fill-opacity: 1; white-space: pre; opacity: 1;" transform="translate(0,511)">39.2k</text></g><g class="ytick"><text text-anchor="end" x="95.2" y="6.6499999999999995" style="font-family: 'Open Sans', verdana, arial, sans-serif; font-size: 19px; fill: rgb(42, 63, 95); fill-opacity: 1; white-space: pre; opacity: 1;" transform="translate(0,456.76)">39.4k</text></g><g class="ytick"><text text-anchor="end" x="95.2" y="6.6499999999999995" style="font-family: 'Open Sans', verdana, arial, sans-serif; font-size: 19px; fill: rgb(42, 63, 95); fill-opacity: 1; white-space: pre; opacity: 1;" transform="translate(0,402.53)">39.6k</text></g><g class="ytick"><text text-anchor="end" x="95.2" y="6.6499999999999995" style="font-family: 'Open Sans', verdana, arial, sans-serif; font-size: 19px; fill: rgb(42, 63, 95); fill-opacity: 1; white-space: pre; opacity: 1;" transform="translate(0,348.29)">39.8k</text></g><g class="ytick"><text text-anchor="end" x="95.2" y="6.6499999999999995" style="font-family: 'Open Sans', verdana, arial, sans-serif; font-size: 19px; fill: rgb(42, 63, 95); fill-opacity: 1; white-space: pre; opacity: 1;" transform="translate(0,294.05)">40k</text></g><g class="ytick"><text text-anchor="end" x="95.2" y="6.6499999999999995" style="font-family: 'Open Sans', verdana, arial, sans-serif; font-size: 19px; fill: rgb(42, 63, 95); fill-opacity: 1; white-space: pre; opacity: 1;" transform="translate(0,239.81)">40.2k</text></g><g class="ytick"><text text-anchor="end" x="95.2" y="6.6499999999999995" style="font-family: 'Open Sans', verdana, arial, sans-serif; font-size: 19px; fill: rgb(42, 63, 95); fill-opacity: 1; white-space: pre; opacity: 1;" transform="translate(0,185.57)">40.4k</text></g><g class="ytick"><text text-anchor="end" x="95.2" y="6.6499999999999995" style="font-family: 'Open Sans', verdana, arial, sans-serif; font-size: 19px; fill: rgb(42, 63, 95); fill-opacity: 1; white-space: pre; opacity: 1;" transform="translate(0,131.32999999999998)">40.6k</text></g><g class="ytick"><text text-anchor="end" x="95.2" y="6.6499999999999995" style="font-family: 'Open Sans', verdana, arial, sans-serif; font-size: 19px; fill: rgb(42, 63, 95); fill-opacity: 1; white-space: pre; opacity: 1;" transform="translate(0,77.09)">40.8k</text></g></g><g class="overaxes-above"/></g></g><g class="polarlayer"/><g class="smithlayer"/><g class="ternarylayer"/><g class="geolayer"/><g class="funnelarealayer"/><g class="pielayer"/><g class="iciclelayer"/><g class="treemaplayer"/><g class="sunburstlayer"/><g class="glimages"/><defs id="topdefs-492807"><g class="clips"/></defs><g class="layer-above"><g class="imagelayer"/><g class="shapelayer"><path data-index="0" fill-rule="evenodd" d="M111.25,630L111.25,50" clip-path="url(#clip492807x)" style="opacity: 0.5; stroke: rgb(214, 39, 40); stroke-opacity: 1; fill: rgb(0, 0, 0); fill-opacity: 0; stroke-dasharray: 3px, 3px; stroke-width: 2px;"/><path data-index="1" fill-rule="evenodd" d="M101,594.75L950,594.75" clip-path="url(#clip492807y)" style="opacity: 0.5; stroke: rgb(214, 39, 40); stroke-opacity: 1; fill: rgb(0, 0, 0); fill-opacity: 0; stroke-dasharray: 3px, 3px; stroke-width: 2px;"/><path data-index="2" fill-rule="evenodd" d="M111.25,630L111.25,50" clip-path="url(#clip492807x)" style="opacity: 0.5; stroke: rgb(214, 39, 40); stroke-opacity: 1; fill: rgb(0, 0, 0); fill-opacity: 0; stroke-dasharray: 3px, 3px; stroke-width: 2px;"/><path data-index="3" fill-rule="evenodd" d="M101,448.37L950,448.37" clip-path="url(#clip492807y)" style="opacity: 0.5; stroke: rgb(214, 39, 40); stroke-opacity: 1; fill: rgb(0, 0, 0); fill-opacity: 0; stroke-dasharray: 3px, 3px; stroke-width: 2px;"/></g></g><g class="infolayer"><g class="g-gtitle"/><g class="g-xtitle"><text class="xtitle" x="525.5" y="689.9125" text-anchor="middle" style="font-family: 'Open Sans', verdana, arial, sans-serif; font-size: 23px; fill: rgb(42, 63, 95); opacity: 1; font-weight: normal; white-space: pre;">Network losses [kWh]</text></g><g class="g-ytitle" transform="translate(13.302734375,0)"><text class="ytitle" transform="rotate(-90,9.696875000000006,340)" x="9.696875000000006" y="340" text-anchor="middle" style="font-family: 'Open Sans', verdana, arial, sans-serif; font-size: 23px; fill: rgb(42, 63, 95); opacity: 1; font-weight: normal; white-space: pre;">Total energy costs [€]</text></g></g></svg>